<?xml version="1.0" encoding="UTF-8" standalone="no"?>
<!-- Created with Inkscape (http://www.inkscape.org/) -->

<svg
   xmlns:dc="http://purl.org/dc/elements/1.1/"
   xmlns:cc="http://creativecommons.org/ns#"
   xmlns:rdf="http://www.w3.org/1999/02/22-rdf-syntax-ns#"
   xmlns:svg="http://www.w3.org/2000/svg"
   xmlns="http://www.w3.org/2000/svg"
   xmlns:sodipodi="http://sodipodi.sourceforge.net/DTD/sodipodi-0.dtd"
   xmlns:inkscape="http://www.inkscape.org/namespaces/inkscape"
   id="svg4167"
   version="1.1"
   inkscape:version="0.91 r13725"
   width="1090.0559"
   height="1866.8997"
   viewBox="0 0 1090.0559 1866.8997"
   sodipodi:docname="LightBulb2.svg">
  <metadata
     id="metadata4173">
    <rdf:RDF>
      <cc:Work
         rdf:about="">
        <dc:format>image/svg+xml</dc:format>
        <dc:type
           rdf:resource="http://purl.org/dc/dcmitype/StillImage" />
        <dc:title></dc:title>
      </cc:Work>
    </rdf:RDF>
  </metadata>
  <defs
     id="defs4171" />
  <sodipodi:namedview
     pagecolor="#ffffff"
     bordercolor="#666666"
     borderopacity="1"
     objecttolerance="10"
     gridtolerance="10"
     guidetolerance="10"
     inkscape:pageopacity="0"
     inkscape:pageshadow="2"
     inkscape:window-width="1600"
     inkscape:window-height="837"
     id="namedview4169"
     showgrid="false"
     fit-margin-top="0"
     fit-margin-left="0"
     fit-margin-right="0"
     fit-margin-bottom="0"
     inkscape:zoom="0.35608703"
     inkscape:cx="689.74432"
     inkscape:cy="940.23886"
     inkscape:window-x="-8"
     inkscape:window-y="-8"
     inkscape:window-maximized="1"
     inkscape:current-layer="svg4167" />
  <path
     style="fill:#000000"
     d="m 530.60795,1866.5672 c -2.44688,-0.3392 -4.95704,-1.1249 -5.57812,-1.746 -0.6211,-0.6211 -2.0781,-1.1292 -3.2378,-1.1292 -2.03618,0 -6.89146,-5.0973 -6.89146,-7.235 0,-0.5302 -0.87795,-2.9489 -1.95099,-5.3747 l -1.95099,-4.4105 -8.12714,0.201 c -28.29733,0.6996 -38.74642,-2.2921 -30.16474,-8.6368 3.3848,-2.5025 6.03943,-2.7507 30.00636,-2.8053 10.41577,-0.023 18.75967,-0.4347 19.3932,-0.9552 0.72961,-0.5995 1.79765,-0.5466 3.10618,0.1536 1.27719,0.6836 10.01309,1.182 24.29638,1.3864 38.21444,0.5468 46.95424,1.6853 46.95424,6.1164 0,3.0823 -4.39467,5.1426 -11.20886,5.2551 -3.3742,0.055 -8.95154,0.4036 -12.39413,0.773 -4.07944,0.4378 -6.94189,0.3063 -8.21945,-0.3774 -1.53057,-0.8191 -2.41333,-0.7317 -4.02749,0.3989 -1.137,0.7964 -3.36558,1.448 -4.95242,1.448 -3.07859,0 -5.13515,1.4243 -5.13515,3.5566 0,0.7187 -1.31127,3.4989 -2.91394,6.1784 -2.85513,4.7735 -3.5361,5.2264 -11.14856,7.4151 -0.77344,0.2223 -3.40824,0.1268 -5.85512,-0.2124 z m 3.56687,-9.0262 c 5.48307,-0.8223 8.85075,-3.8088 8.85075,-7.849 l 0,-2.8351 -10.80157,0.1025 c -12.3883,0.1175 -13.17312,0.6121 -8.5248,5.3724 1.86388,1.9088 3.38887,4.2361 3.38887,5.172 0,1.0566 0.48742,1.5143 1.28639,1.2076 0.70751,-0.2715 3.31768,-0.7981 5.80036,-1.1704 z m -111.73587,-30.172 c -1.09608,-0.1866 -2.96259,-1.3716 -4.14779,-2.6332 -1.18521,-1.2616 -2.86761,-2.2938 -3.73867,-2.2938 -2.15549,0 -6.3715,-4.3758 -8.02199,-8.3259 -0.74513,-1.7833 -2.1446,-3.7957 -3.10993,-4.4718 -3.94992,-2.7667 -9.46251,-19.003 -7.11375,-20.9523 3.79153,-3.1467 0.72833,-3.2721 -6.35457,-0.2602 -3.26676,1.3892 -4.18408,1.3828 -11.80179,-0.083 -4.54283,-0.874 -8.92251,-1.3348 -9.73261,-1.0239 -0.96958,0.372 -1.6836,-0.099 -2.08951,-1.3777 -0.3581,-1.1283 -1.41776,-1.9428 -2.52749,-1.9428 -1.05097,0 -3.11817,-0.9492 -4.59377,-2.1093 -1.4756,-1.1602 -4.44309,-3.375 -6.59443,-4.9219 -9.92599,-7.1371 -17.03227,-19.0032 -16.36949,-27.334 0.19871,-2.4975 0.0235,-4.9629 -0.38921,-5.4785 -0.64085,-0.8005 -1.68706,-6.7705 -1.84324,-10.5182 -0.0262,-0.6287 -2.62223,-3.7097 -5.76895,-6.8467 -4.22673,-4.2136 -5.59384,-6.191 -5.23337,-7.5694 0.26837,-1.0262 0.0609,-3.2187 -0.46122,-4.872 -1.56876,-4.9686 -0.91034,-9.7661 1.92833,-14.0507 11.35731,-17.1428 11.18468,-16.417 5.5032,-23.1366 -9.59799,-11.3517 -9.57028,-11.3048 -9.69675,-16.4052 -0.0658,-2.6561 -0.54773,-5.6499 -1.07081,-6.6528 -0.82288,-1.5777 -0.94943,-4.3253 -0.39481,-8.572 0.0807,-0.6179 1.24591,-2.3054 2.58935,-3.75 8.98785,-9.6642 11.11724,-17.6783 5.94175,-22.362 -1.00203,-0.9069 -1.82186,-2.1546 -1.82186,-2.7729 0,-0.6181 -1.11042,-2.3221 -2.46761,-3.7866 -5.27475,-5.6915 -7.5158,-23.8394 -3.8252,-30.9762 0.78566,-1.5193 1.2129,-3.8901 0.94944,-5.2683 -0.36176,-1.8924 0.4674,-3.8552 3.38641,-8.0166 6.70789,-9.5627 7.41007,-15.9982 2.66009,-24.3798 -5.68775,-10.0365 -6.64095,-20.8793 -2.60871,-29.6749 1.28027,-2.7927 1.45557,-3.9941 0.65498,-4.4889 -1.14761,-0.7093 -1.29422,-1.9958 -1.95444,-17.1502 -0.50488,-11.589 -1.3269,-17.3438 -2.4774,-17.3438 -0.48403,0 -0.88006,-0.5535 -0.88006,-1.2299 0,-1.7978 -5.39722,-5.5289 -10.74913,-7.4309 -15.814,-5.6199 -12.01818,-24.5692 5.31959,-26.5562 l 8.71079,-0.9983 -4.03266,-1.1602 c -2.21795,-0.6381 -4.24662,-1.7178 -4.50814,-2.3993 -0.26152,-0.6816 -1.86022,-1.9849 -3.55266,-2.8963 -3.37859,-1.8195 -8.33172,-9.9122 -7.45889,-12.1868 0.29048,-0.7569 -0.40457,-2.957 -1.54455,-4.8892 -2.06912,-3.5069 -2.60395,-6.8369 -4.58201,-28.5287 -0.45425,-4.9814 -1.1497,-9.581 -1.54543,-10.2213 -0.39574,-0.6403 -0.76028,-5.4649 -0.8101,-10.7212 -0.0569,-6.0064 -0.5147,-10.0679 -1.23221,-10.9321 -0.67845,-0.8172 -1.53539,-7.2466 -2.11209,-15.8467 -0.53375,-7.9594 -1.215,-15.9482 -1.51391,-17.7529 -1.21272,-7.3219 -5.1923,-24.9656 -6.0265,-26.7187 -0.4907,-1.0313 -1.34226,-4.8281 -1.89235,-8.4375 -0.55011,-3.6094 -2.20545,-11.4141 -3.67856,-17.3438 -1.4731,-5.9297 -2.98875,-13.7343 -3.36811,-17.3437 -0.37936,-3.6094 -1.2297,-7.4063 -1.88961,-8.4375 -0.65993,-1.0313 -1.48222,-3.9844 -1.82732,-6.5625 -0.83629,-6.2476 -2.14391,-11.5727 -3.68342,-15 -1.90068,-4.231 -6.14773,-17.9941 -6.14773,-19.9222 0,-0.9303 -0.7306,-2.7345 -1.62357,-4.0094 -0.89297,-1.2749 -1.50731,-2.4269 -1.36522,-2.56 0.56022,-0.5249 -0.92225,-7.4156 -2.16655,-10.0704 -0.72502,-1.5469 -1.77157,-4.5877 -2.32567,-6.7574 -0.55409,-2.1696 -1.41785,-4.1984 -1.91946,-4.5084 -0.50162,-0.31 -0.91203,-1.5419 -0.91203,-2.7376 0,-2.6913 -4.07192,-13.1552 -5.67773,-14.5904 -0.82682,-0.739 -7.45457,-20.9145 -7.45073,-22.6807 0.002,-0.873 -0.84384,-3.0232 -1.87943,-4.7784 -1.0356,-1.7552 -2.55173,-5.4707 -3.36917,-8.2567 -0.81745,-2.786 -2.26487,-5.9092 -3.21649,-6.9404 -1.59365,-1.727 -5.05003,-11.3741 -7.43443,-20.7502 -0.54201,-2.1313 -1.61526,-4.3978 -2.385,-5.0367 -0.76974,-0.6388 -1.4011,-2.0591 -1.40303,-3.156 -0.002,-1.0971 -0.84567,-3.376 -1.875,-5.0642 -1.02932,-1.6883 -1.87149,-3.6585 -1.87149,-4.3784 0,-0.7199 -1.43485,-4.1903 -3.18857,-7.7118 -1.75371,-3.5215 -3.89828,-8.0902 -4.76571,-10.1527 -0.86743,-2.0625 -2.17476,-5.1355 -2.90518,-6.8287 -0.73042,-1.6933 -1.32804,-3.6891 -1.32804,-4.4351 0,-2.3543 -8.53157,-19.3163 -13.62781,-27.0942 -0.75832,-1.1573 -1.16451,-2.3185 -0.90263,-2.5803 0.69508,-0.6951 -9.7874,-21.40548 -10.83429,-21.40548 -0.4869,0 -0.88527,-0.4636 -0.88527,-1.0302 0,-0.5665 -0.58335,-2.3595 -1.29634,-3.9844 -1.72339,-3.9274 -3.11407,-8.00756 -3.79799,-11.14302 -0.37186,-1.70485 -1.33969,-2.75972 -2.8887,-3.14851 -1.59969,-0.40143 -2.32947,-1.23206 -2.32947,-2.65134 0,-2.36156 -4.51325,-7.10503 -6.76023,-7.10503 -2.07662,0 -7.98973,-8.49506 -8.75591,-12.57919 -0.34652,-1.84706 -0.96368,-3.35831 -1.37149,-3.35831 -0.40779,0 -1.18459,-1.27116 -1.7262,-2.82488 -0.54161,-1.55362 -1.63758,-3.07537 -2.43546,-3.38156 -0.79789,-0.30619 -1.45071,-1.35572 -1.45071,-2.3324 0,-0.97669 -1.58203,-3.46013 -3.51562,-5.51888 -8.85564,-9.42872 -9.49079,-10.53066 -12.32314,-21.37847 -0.84798,-3.24771 -2.10933,-6.2557 -2.80301,-6.68442 -0.69367,-0.42871 -1.95102,-2.2973 -2.7941,-4.15241 -0.84309,-1.85511 -4.103,-6.019 -7.24424,-9.25308 -3.14126,-3.23408 -7.32625,-8.20046 -9.29998,-11.0364 -1.97373,-2.83594 -5.204402,-7.30396 -7.179259,-9.92894 -1.974862,-2.62498 -3.590653,-5.12903 -3.590653,-5.56458 0,-0.43553 -0.769941,-1.66282 -1.710985,-2.72731 -0.941042,-1.06448 -3.761067,-5.31042 -6.26672,-9.43542 -2.505653,-4.125 -5.743522,-8.96722 -7.195265,-10.76048 -1.451741,-1.79326 -2.63953,-3.60287 -2.63953,-4.02135 0,-0.41849 -1.476563,-2.95346 -3.28125,-5.63326 -1.804688,-2.67981 -3.28125,-5.3537 -3.28125,-5.94198 0,-0.58827 -0.632813,-1.59478 -1.40625,-2.23668 -0.773438,-0.6423 -1.40625,-1.86165 -1.40625,-2.71007 0,-0.84841 -1.033035,-3.06283 -2.295633,-4.92091 -1.262599,-1.85807 -2.584885,-4.59272 -2.938414,-6.07699 -0.353531,-1.48428 -1.169034,-3.33149 -1.812229,-4.10493 -0.643197,-0.77344 -1.485943,-2.44126 -1.872772,-3.70628 -0.386828,-1.26501 -1.280478,-2.87717 -1.985888,-3.58259 -0.70541,-0.70541 -1.282564,-2.04451 -1.282564,-2.9758 0,-0.93128 -0.616475,-2.20488 -1.369944,-2.8302 -0.75347,-0.62532 -1.651819,-2.04807 -1.996332,-3.16167 -0.344512,-1.11359 -2.04835,-4.91864 -3.786305,-8.45568 -1.737956,-3.53703 -3.159919,-6.87881 -3.159919,-7.42618 0,-0.54737 -0.585348,-1.66124 -1.300773,-2.47528 -0.715426,-0.81404 -2.876208,-5.90976 -4.801738,-11.32382 -1.92553,-5.41406 -4.03513,-10.89844 -4.687999,-12.1875 -0.652869,-1.28906 -2.848869,-7.40625 -4.879999,-13.59375 -9.35026,-28.48401 -12.121581,-38.73475 -13.017659,-48.15061 -0.263049,-2.76408 -1.26452,-7.19377 -2.225491,-9.84375 -0.960972,-2.64997 -2.631109,-10.51345 -3.7114169,-17.47439 -1.0803074,-6.96094 -2.1688809,-13.71094 -2.4190519,-15 C 3.95091,630.85084 0.76243339,598.89277 0.21631981,577.44202 -0.41875357,552.49704 0.44011819,504.35 1.5522735,502.5505 c 0.2406879,-0.38944 0.8886385,-5.31926 1.4398902,-10.95515 0.5512517,-5.63589 1.4059774,-12.14552 1.8993904,-14.46583 0.4934131,-2.32031 1.5292393,-8.01562 2.3018361,-12.65625 1.4215565,-8.53862 2.3608949,-13.42591 4.8650738,-25.3125 0.760397,-3.60938 1.522627,-8.08315 1.693845,-9.94174 0.171218,-1.85858 0.780871,-4.25663 1.354783,-5.32899 0.573911,-1.07237 1.043476,-3.01233 1.043476,-4.31103 0,-1.29869 0.382398,-3.33034 0.849772,-4.51476 0.467376,-1.18441 1.769175,-5.52848 2.892887,-9.65348 2.243841,-8.23684 4.259598,-14.42739 6.105343,-18.75 0.660513,-1.54688 1.689845,-4.71094 2.287405,-7.03125 3.170384,-12.31054 4.164766,-15.59518 5.108681,-16.875 1.985123,-2.69155 3.146916,-5.23792 3.849662,-8.4375 0.388942,-1.77083 1.053736,-3.86636 1.477322,-4.65673 1.493254,-2.78624 7.242583,-16.46644 7.892929,-18.78077 0.626622,-2.22991 7.537532,-17.0523 13.91233,-29.83891 1.62676,-3.26297 4.108359,-7.05984 5.514666,-8.4375 1.406306,-1.37767 2.568638,-3.19147 2.582961,-4.03068 0.01432,-0.8392 0.654209,-2.04716 1.42197,-2.68434 0.76776,-0.63719 1.200563,-1.47462 0.961783,-1.86098 -0.764062,-1.23628 5.916037,-13.70528 11.00193,-20.53609 2.706885,-3.63559 5.976297,-8.38866 7.265359,-10.56238 1.289063,-2.17373 3.547609,-5.35215 5.018991,-7.06318 1.471387,-1.71102 2.372081,-3.11094 2.001553,-3.11094 -0.606966,0 1.456959,-3.62088 3.459596,-6.06938 0.432702,-0.52903 3.172782,-4.54781 6.089072,-8.93062 5.07931,-7.63354 11.91508,-16.21795 17.41427,-21.86899 1.41846,-1.45763 2.57902,-3.05636 2.57902,-3.55274 0,-0.49637 2.63672,-3.77675 5.85938,-7.28973 3.22265,-3.51298 9.0075,-9.92987 12.8552,-14.25976 8.29161,-9.33068 31.11205,-32.13139 35.70965,-35.67877 1.77761,-1.37155 5.3738,-4.53562 7.99153,-7.03125 6.8548,-6.53508 19.55788,-17.17534 23.01536,-19.27795 1.63013,-0.99134 4.48514,-3.2446 6.3445,-5.00724 1.85934,-1.76265 3.67996,-3.20847 4.04581,-3.21294 0.36585,-0.005 1.63148,-1.02278 2.8125,-2.2629 2.80812,-2.94864 27.49198,-19.5062 31.51636,-21.14069 1.71548,-0.69674 5.51235,-3.136774 8.4375,-5.422296 2.92515,-2.285517 6.9881,-5.016341 9.02878,-6.068494 2.04067,-1.052153 5.80824,-3.356125 8.37238,-5.119939 4.91732,-3.382529 30.47486,-16.243811 32.27918,-16.243811 0.5811,0 2.86084,-1.062719 5.06608,-2.361599 6.76413,-3.984038 20.99951,-10.763401 22.60111,-10.763401 0.83299,0 3.31878,-0.804489 5.52398,-1.787754 7.36481,-3.283858 16.18366,-6.655165 17.40181,-6.65244 0.66267,0.0015 2.13923,-0.580305 3.28125,-1.292861 1.14201,-0.712554 3.90807,-1.56748 6.1468,-1.899835 2.23872,-0.332355 5.76009,-1.466299 7.82527,-2.519876 2.06519,-1.053577 6.77257,-2.737263 10.46085,-3.741525 19.61204,-5.340052 24.98274,-6.751869 29.76037,-7.823236 2.88304,-0.646512 5.7269,-1.475226 6.31968,-1.841586 0.99516,-0.615045 16.3226,-3.9388637 21.71967,-4.7100007 1.28906,-0.184182 5.92969,-0.826145 10.3125,-1.426586 4.38281,-0.600441 11.55469,-1.753279 15.9375,-2.561863 4.38281,-0.808585 10.28906,-1.633039 13.125,-1.832123 54.25325,-3.808582 66.57477,-3.960662 103.28001,-1.274744 24.24592,1.774203 37.49335,3.394373 57.03249,6.97511 14.96038,2.7416357 17.50636,3.2777137 22.5,4.7375747 2.83594,0.829067 7.05469,1.868813 9.375,2.310544 2.32031,0.441732 6.11719,1.428853 8.4375,2.193603 2.32031,0.76475 5.90625,1.682938 7.96875,2.040419 2.0625,0.357481 4.17187,0.97908 4.6875,1.381331 0.51562,0.402252 2.41406,0.999593 4.21875,1.327425 1.80469,0.327833 4.41299,1.18683 5.79623,1.908882 1.38323,0.722052 3.91448,1.609754 5.625,1.972671 9.0331,1.916537 41.98139,14.147643 44.31314,16.449981 0.48985,0.483664 1.70412,0.879389 2.69838,0.879389 0.99427,0 3.96849,1.215462 6.60938,2.701027 2.64089,1.485564 6.42536,3.219545 8.40993,3.853291 1.98456,0.633748 6.01308,2.51153 8.95226,4.17285 2.93917,1.661322 6.76253,3.515103 8.49635,4.119516 2.99554,1.044249 12.44064,6.237585 17.7366,9.752366 1.35106,0.896667 3.08929,1.923571 3.86273,2.282013 0.77344,0.358441 1.92327,1.368887 2.55519,2.245436 0.63192,0.87655 2.58535,1.863196 4.34095,2.192549 3.68114,0.690587 14.46313,7.372983 15.26411,9.460299 0.2972,0.774487 1.25832,1.408153 2.13583,1.408153 2.42135,0 12.34781,6.24038 15.73425,9.89151 1.6495,1.77842 3.75887,3.23715 4.6875,3.24162 0.92863,0.005 3.16498,1.38197 4.96967,3.0611 1.80469,1.67911 4.48952,3.58678 5.9663,4.23923 1.47678,0.65245 5.06271,3.184 7.96875,5.62566 2.90603,2.44166 6.54932,5.38952 8.0962,6.5508 8.0204,6.02115 9.49262,7.34971 9.18085,8.28502 -0.18702,0.56106 1.25672,2.23246 3.20831,3.71422 3.0495,2.31535 16.69836,14.46783 19.48584,17.34952 0.51562,0.53305 4.32825,4.4237 8.47249,8.64588 4.14424,4.22218 10.05054,10.58244 13.12498,14.13393 3.07453,3.55147 6.79772,7.55928 8.27372,8.90625 1.476,1.34695 3.98494,4.34745 5.5755,6.66776 1.59056,2.32031 5.07,6.53906 7.73212,9.375 2.66213,2.83594 5.42653,6.26582 6.14316,7.62196 0.71672,1.35614 4.72219,6.54276 8.90119,11.52584 4.179,4.98307 8.175,10.20161 8.88,11.59678 0.705,1.39517 3.5085,5.94038 6.22996,10.10046 2.72147,4.16008 4.94816,7.87964 4.94816,8.26567 0,0.38605 0.9502,2.04484 2.1117,3.68621 2.5229,3.56544 3.9076,5.78269 5.9619,9.54683 0.8442,1.54687 2.8862,4.5 4.5379,6.5625 1.6516,2.0625 3.6309,5.01562 4.3983,6.5625 1.9329,3.8964 2.968,5.93336 5.3709,10.56978 1.1421,2.20399 1.8518,4.37104 1.577,4.81564 -0.2748,0.44461 0.1286,1.32971 0.8964,1.9669 0.7678,0.63718 1.4032,1.84514 1.4121,2.68434 0.01,0.83921 1.046,2.50238 2.3046,3.69593 2.0113,1.90731 7.9818,13.06184 7.9976,14.94179 0,0.38534 1.707,4.07562 3.7862,8.20062 3.448,6.84084 6.5019,14.53989 11.3421,28.59375 0.9766,2.83594 2.4007,6.48563 3.1645,8.11043 0.7639,1.6248 1.3888,3.63444 1.3888,4.46585 0,1.51844 1.4258,4.49304 3.4088,7.11122 1.1381,1.50267 3.8712,12.09034 4.7191,18.28125 0.2825,2.0625 1.08,4.80469 1.7722,6.09375 1.1866,2.20973 2.9976,7.81509 6.3609,19.6875 0.8034,2.83594 1.7486,7.47656 2.1005,10.3125 0.3518,2.83594 0.9873,5.83343 1.412,6.6611 0.4247,0.82766 1.2123,4.4136 1.7504,7.96875 0.5379,3.55515 1.3847,8.1514 1.8815,10.2139 0.4969,2.0625 1.1031,5.64844 1.347,7.96875 0.5645,5.36835 3.9633,26.90599 4.7343,30 0.3212,1.28906 0.7468,6.14062 0.9458,10.78125 0.199,4.64062 0.7834,13.28906 1.2989,19.21875 0.5155,5.92969 0.7519,12.67969 0.5255,15 -0.2263,2.32031 -0.3343,7.06641 -0.2398,10.54687 0.3175,11.69248 0.1367,27.38314 -0.3699,32.10938 -0.2763,2.57812 -0.7636,11.16728 -1.0829,19.08703 -0.3193,7.91974 -0.8392,14.81795 -1.1552,15.32935 -0.316,0.5114 -0.7284,3.5238 -0.9165,6.69422 -0.6724,11.33807 -2.9023,26.04847 -5.4925,36.23315 -0.7213,2.83594 -2.2276,10.85156 -3.3474,17.8125 -1.1197,6.96094 -3.0194,15.00479 -4.2214,17.87522 -1.2021,2.87044 -2.3935,7.51106 -2.6475,10.3125 -0.6771,7.46585 -3.105,16.9964 -6.6535,26.11712 -1.7201,4.4214 -4.8973,13.52328 -7.0605,20.22641 -2.1631,6.70312 -4.539,12.86765 -5.2797,13.69895 -0.7408,0.83129 -1.7252,2.72972 -2.1875,4.21875 -1.9222,6.19111 -6.6584,18.05081 -8.4753,21.22292 -1.8041,3.14955 -2.772,4.97364 -6.5911,12.42188 -2.1152,4.125 -5.5387,10.66406 -7.6079,14.53125 -2.069,3.86719 -4.2564,8.29687 -4.8607,9.84375 -1.2274,3.1415 -7.6021,14.29268 -12.4522,21.78246 -1.7478,2.69909 -3.182,5.23034 -3.187,5.625 -0.01,0.587 -3.4534,5.35902 -7.28787,10.09254 -0.71381,0.88115 -8.9385,13.11265 -10.98431,16.3356 -0.51562,0.8123 -1.16812,1.68784 -1.44994,1.94565 -2.62631,2.40217 -12.14381,16.35234 -12.14381,17.79962 0,2.06856 -5.00841,8.45038 -6.63178,8.45038 -2.29744,0 -2.92191,1.26716 -3.27178,6.63922 -0.19575,3.00555 -0.95841,5.27897 -2.22825,6.642 -1.06191,1.13978 -1.93069,2.38531 -1.93069,2.76785 0,0.38254 -0.88237,0.83034 -1.96087,0.9951 -1.34991,0.20623 -3.13585,2.49057 -5.73122,7.33083 -2.07366,3.86719 -6.81844,12.54525 -10.54397,19.28466 -5.30923,9.60421 -6.61028,12.69525 -6.01779,14.29687 0.62366,1.68591 0.41558,2.04347 -1.18916,2.04347 -1.29333,0 -1.77425,0.44522 -1.43524,1.32862 0.28042,0.73079 -0.12305,1.57154 -0.89661,1.86844 -0.77357,0.29681 -1.15415,0.948 -0.84575,1.44694 0.30841,0.49903 -0.72534,2.68275 -2.29721,4.85259 -1.87965,2.59482 -2.6614,4.5646 -2.28376,5.75438 0.47655,1.5015 0.23963,1.70297 -1.39337,1.18462 -1.42714,-0.4529 -1.96755,-0.22087 -1.96755,0.84497 0,0.80822 0.52734,1.47225 1.17188,1.47563 0.64453,0 -0.0937,0.84431 -1.64063,1.86881 -1.54687,1.0245 -2.49609,1.86544 -2.10937,1.86881 0.38671,0 -0.14063,0.84994 -1.17188,1.88119 -1.03125,1.03125 -1.875,2.7358 -1.875,3.788 0,1.6832 -3.119,7.0943 -4.84671,8.4084 -0.34537,0.2627 -0.76725,1.0713 -0.9375,1.7968 -0.17025,0.7256 -1.04782,2.0927 -1.95016,3.03808 -0.90235,0.9453 -1.64063,2.5415 -1.64063,3.5471 0,1.0057 -0.73828,2.2584 -1.64062,2.784 -1.29831,0.7562 -1.34721,0.9678 -0.23438,1.0139 1.07936,0.045 0.98322,0.3783 -0.41356,1.4348 -1.00089,0.757 -1.5118,1.3764 -1.13535,1.3764 0.37644,0 -0.20796,0.9492 -1.29871,2.1094 -2.08278,2.2153 -6.52738,10.8948 -6.52738,12.7467 0,0.5947 -0.42188,1.0814 -0.9375,1.0814 -0.51563,0 -0.9375,0.6328 -0.9375,1.4063 0,0.7734 -0.42188,1.4062 -0.9375,1.4062 -0.51563,0 -0.9375,0.6328 -0.9375,1.4063 0,0.7734 -0.44678,1.4062 -0.99283,1.4062 -0.54606,0 -0.76164,0.3741 -0.47907,0.8313 0.28257,0.4572 -0.11442,1.3526 -0.88217,1.9897 -0.76776,0.6373 -1.39593,1.9507 -1.39593,2.9188 0,0.9681 -0.42188,1.7602 -0.9375,1.7602 -0.51563,0 -0.9375,0.6328 -0.9375,1.4063 0,0.7734 -0.39345,1.4062 -0.87432,1.4062 -1.09066,0 -2.37818,3.6641 -2.05892,5.8594 0.1336,0.9186 -0.36032,1.6406 -1.12241,1.6406 -0.74856,0 -1.34143,0.5273 -1.31749,1.1719 0.11736,3.1601 -0.42595,4.2904 -2.36123,4.9119 -1.78273,0.5725 -1.85585,0.7452 -0.4722,1.1149 1.99045,0.5318 1.20763,2.313 -2.99284,6.8096 -1.57076,1.6815 -2.64273,3.4023 -2.38214,3.8239 0.26058,0.4217 -0.1629,1.4033 -0.94108,2.1816 -0.77818,0.7781 -1.41487,1.8668 -1.41487,2.4193 0,0.5524 -0.35733,1.0044 -0.79405,1.0044 -1.68782,0 -5.33171,3.991 -4.05927,4.4459 0.94406,0.3376 0.81015,0.9234 -0.56048,2.4519 -2.13024,2.3758 -5.04708,9.5163 -4.22362,10.3397 0.3162,0.3162 0.0875,0.575 -0.50833,0.575 -0.59579,0 -1.05688,0.9492 -1.02464,2.1094 0.0861,3.0986 -0.31583,4.2378 -4.13405,11.7187 -1.90802,3.7383 -3.04196,6.7969 -2.51984,6.7969 0.5221,0 0.94928,0.6786 0.94928,1.5079 0,1.143 -0.57102,1.3645 -2.35953,0.9156 -3.1295,-0.7854 -7.4653,2.728 -4.68372,3.7954 1.08158,0.415 2.09942,0.087 2.82905,-0.9103 1.32149,-1.8073 3.69723,-2.1255 2.88668,-0.3867 -0.30045,0.6445 -0.80045,1.8862 -1.1111,2.7594 -0.31065,0.8732 -1.68201,1.717 -3.04747,1.875 -1.36546,0.1581 -2.34953,0.7093 -2.1868,1.2249 0.16271,0.5157 0.98377,0.7946 1.82458,0.6198 1.29583,-0.2693 1.34039,-0.091 0.29248,1.1719 -0.67994,0.8193 -1.98321,1.4896 -2.89616,1.4896 -2.24351,0 -3.09114,2.5552 -1.1989,3.6142 1.38019,0.7725 1.33209,1.318 -0.51876,5.8842 -1.122,2.768 -2.21646,5.9547 -2.43213,7.0814 -0.21567,1.1267 -0.86301,2.9284 -1.43853,4.0038 -0.57552,1.0753 -0.81837,2.3241 -0.53968,2.7751 0.2787,0.4509 -0.18405,1.0849 -1.02833,1.4089 -0.84427,0.3239 -1.29839,0.8257 -1.00913,1.115 0.28926,0.2892 -0.10266,1.26 -0.87091,2.1573 -0.76826,0.8972 -1.53803,3.9451 -1.7106,6.7729 -0.33518,5.4925 -2.59452,12.0622 -4.14822,12.0622 -0.51857,0 -1.21053,1.582 -1.53769,3.5156 -0.32715,1.9336 -1.16304,5.2031 -1.85753,7.2656 -0.69449,2.0625 -1.57338,5.4375 -1.9531,7.5 -0.82015,4.455 -0.62876,3.8442 -2.56112,8.1731 -0.85574,1.917 -1.55588,4.151 -1.55588,4.9644 0,0.8135 -1.05469,2.5337 -2.34375,3.8228 -1.28906,1.289 -2.40801,3.4847 -2.48654,4.8793 -0.0786,1.3945 -0.20875,2.9573 -0.28936,3.4729 -0.0806,0.5157 -0.44122,2.836 -0.80137,5.1563 -0.36015,2.3203 -0.87871,8.426 -1.15236,13.5681 -0.28406,5.338 -1.08567,10.5283 -1.86833,12.0972 -0.75393,1.5112 -1.37079,4.1243 -1.37079,5.8069 0,1.6825 -0.43515,3.2041 -0.967,3.3814 -0.65193,0.2173 -0.61869,1.3215 0.10201,3.3889 1.06146,3.0449 0.45094,11.4378 -0.83308,11.4523 -1.66517,0.019 -4.12108,7.9987 -6.21933,20.2081 -0.18282,1.0639 0.005,3.776 0.41599,6.0269 0.52581,2.8754 0.33102,5.3674 -0.65491,8.3784 -0.77183,2.357 -1.72029,6.184 -2.1077,8.5043 -0.93291,5.5875 -1.31671,6.9285 -2.1634,7.5588 -0.38975,0.29 -0.84031,2.6855 -1.00125,5.3233 -0.16092,2.6377 -0.8094,5.4186 -1.44107,6.1797 -0.67499,0.8133 -0.89544,2.3921 -0.53469,3.8294 0.34704,1.3827 0.1479,3.007 -0.45817,3.7373 -0.58959,0.7104 -1.27078,2.8444 -1.51376,4.7422 -0.24298,1.8979 -0.86239,4.2365 -1.37646,5.197 -0.51407,0.9606 -0.93468,2.9948 -0.93468,4.5204 0,1.6634 -0.59307,3.0014 -1.48148,3.3423 -1.22432,0.4698 -1.40714,1.7947 -1.05314,7.6325 0.30564,5.0405 -0.07,8.9623 -1.31147,13.6908 -1.10093,4.1934 -1.58301,8.4696 -1.3128,11.645 0.23485,2.7599 0.0593,5.2454 -0.39026,5.5232 -0.4495,0.2778 -1.10767,3.9879 -1.4626,8.2447 -0.7198,8.6327 -2.80597,13.9854 -7.02669,18.0291 -5.17723,4.9601 -6.39009,14.2449 -2.82326,21.613 6.22748,12.8643 4.47055,24.8163 -3.64795,24.8163 -1.06969,0 -3.31596,1.5067 -4.99171,3.3483 l -3.04684,3.3482 -0.11468,19.3862 c -0.13301,22.4852 0.12596,21.5135 -6.95635,26.0993 l -5.45769,3.5337 2.96034,4.1952 c 1.62818,2.3074 5.66956,7.091 8.98084,10.6302 9.86455,10.5434 11.60044,19.1932 5.34508,26.6342 -1.66725,1.9833 -4.05139,5.0825 -5.29809,6.8872 -1.2467,1.8047 -2.596,3.7031 -2.99844,4.2187 -7.52909,9.6465 -8.16334,11.9623 -3.98384,14.5454 1.8172,1.123 3.98372,3.3722 4.81452,4.9982 0.83079,1.626 2.08619,3.2939 2.78977,3.7062 0.70359,0.4123 1.27924,1.8044 1.27924,3.0934 0,1.289 0.57548,3.4829 1.27886,4.8753 2.25089,4.4558 2.53916,13.5563 0.51291,16.1923 -0.96254,1.2522 -1.75945,2.7282 -1.77092,3.2799 -0.0114,0.5517 -1.42651,2.6611 -3.14452,4.6875 -10.7892,12.7258 -11.7363,16.4382 -5.93684,23.2708 2.23547,2.6337 4.31713,5.6323 4.62588,6.6635 0.30877,1.0313 1.20341,3.5625 1.98811,5.625 2.87754,7.5634 1.34127,13.0838 -5.48623,19.7142 -2.7812,2.7009 -3.27916,3.6406 -2.26846,4.2807 1.05765,0.6699 1.02426,0.8228 -0.18225,0.8346 -1.6443,0.016 -4.96079,3.3437 -5.85367,5.8737 -0.31846,0.9023 -1.04257,1.6406 -1.60912,1.6406 -1.63241,0 -0.0286,3.8573 3.09002,7.4318 5.45031,6.2471 7.97555,17.9657 4.54116,21.0737 -1.02638,0.9289 -2.1334,2.9056 -2.46002,4.3928 -0.59402,2.7046 -4.39139,6.4767 -6.52003,6.4767 -0.62137,0 -1.71319,1.793 -2.42627,3.9844 -3.71535,11.4179 -6.51555,17.1711 -10.15485,20.864 -2.11682,2.1481 -3.84876,4.2958 -3.84876,4.7726 0,0.773 -2.33236,3.4431 -5.81536,6.6573 -0.66874,0.6171 -3.32338,3.2538 -5.8992,5.8594 -2.57583,2.6055 -5.15367,4.7373 -5.72856,4.7373 -0.57487,0 -2.47519,0.9556 -4.22293,2.1234 -5.21512,3.485 -12.66476,5.2715 -20.75451,4.977 -7.9674,-0.29 -7.7005,-0.4374 -11.45585,6.3271 -1.3805,2.4868 -3.21758,5.3042 -4.08242,6.261 -3.42003,3.7837 -4.2283,5.0255 -5.70664,8.7676 -2.9347,7.4287 -4.65136,9.7981 -7.8026,10.7696 -2.84533,0.8772 -230.60706,1.2529 -235.68105,0.3888 z m 192.84257,-11.4895 c 2.86588,-5.4187 4.61905,-9.585 4.61905,-10.9767 0,-1.7239 3.5179,-9.4536 5.72596,-12.5815 l 1.73972,-2.4643 -2.91253,-0.5825 c -1.60189,-0.3204 -6.61153,-0.5825 -11.13253,-0.5825 -8.66252,0 -9.7699,0.5666 -8.74757,4.476 0.31436,1.2021 -0.52408,2.9905 -2.40788,5.1361 -1.5896,1.8104 -2.89017,4.0857 -2.89017,5.0561 0,0.9705 -0.87859,4.0789 -1.95242,6.9075 -3.03253,7.9883 -3.081,7.8804 3.82742,8.5179 10.99298,1.0144 12.18741,0.7687 14.13095,-2.9061 z m -25.45881,0.6735 c 0.44728,-1.1764 1.65581,-4.024 2.68564,-6.3281 2.93934,-6.5762 7.61784,-19.5263 7.69458,-21.2985 0.006,-0.1289 -2.09924,-0.2344 -4.67736,-0.2344 -4.28217,0 -4.6875,0.1886 -4.6875,2.1818 0,1.1999 -1.9155,7.3903 -4.25666,13.7563 -2.34117,6.366 -4.04191,12.1342 -3.77943,12.8182 0.84267,2.196 6.10034,1.5255 7.02073,-0.8953 z M 697.994,1783.4004 c 1.65018,-0.8479 5.74251,-4.3796 9.09407,-7.8483 3.35156,-3.4688 6.55931,-6.4664 7.12835,-6.6615 3.8196,-1.31 16.24115,-25.7082 16.28938,-31.9955 0.0109,-1.4179 0.38862,-2.5781 0.83944,-2.5781 0.83789,0 7.61828,-5.9007 7.61728,-6.6291 -3e-4,-0.2212 -33.4339,-0.4901 -74.29688,-0.5975 -80.19249,-0.211 -139.84696,-0.6605 -209.29632,-1.5771 -49.7806,-0.6569 -91.44822,-0.9455 -104.29688,-0.722 -9.32101,0.162 -10.46801,0.9809 -7.27667,5.1959 0.73456,0.9701 1.78666,4.1341 2.33801,7.0312 1.48516,7.8037 2.95092,12.1447 4.27191,12.6516 0.64613,0.2479 1.85205,2.4899 2.67984,4.9821 0.9408,2.8325 2.62456,5.4057 4.4911,6.8637 1.64232,1.2828 4.23981,3.5269 5.77218,4.9869 1.87427,1.7856 5.02089,3.226 9.61431,4.4008 3.7555,0.9605 8.09744,2.4027 9.64876,3.2049 1.55131,0.8023 3.63362,1.4586 4.62735,1.4586 0.99371,0 2.37184,0.6809 3.0625,1.5131 1.09942,1.3247 3.12686,1.4391 16.28667,0.9191 8.26701,-0.3267 16.06543,-0.625 17.32983,-0.663 l 2.29891,-0.069 -2.24476,-1.6932 c -1.23462,-0.9314 -3.74569,-2.1539 -5.58016,-2.717 -3.34215,-1.0254 -11.30415,-7.6448 -11.30415,-9.3975 0,-0.5131 -1.20304,-3.5887 -2.67342,-6.8345 -10.11737,-22.3337 -1.30152,-35.0194 19.54842,-28.1296 2.88651,0.9538 17.69755,0.9227 37.03125,-0.078 3.86123,-0.1998 6.12587,3.2041 3.29547,4.9534 -3.38344,2.0911 -4.62959,16.4683 -1.74522,20.1351 1.19182,1.5152 2.17433,3.4074 2.18335,4.2049 0.0183,1.613 4.05165,2.202 25.3289,3.6988 6.70312,0.4716 14.29687,1.2794 16.875,1.7953 2.57812,0.5159 8.90625,1.2096 14.0625,1.5418 5.15625,0.3321 11.38786,1.0484 13.84802,1.5917 3.08178,0.6805 4.83629,0.6863 5.64095,0.019 0.71393,-0.5925 4.62386,-0.7919 10.05824,-0.513 11.95701,0.6136 22.56091,0.5839 23.20988,-0.065 0.2919,-0.2919 1.41526,0.049 2.49635,0.7572 1.31614,0.8623 4.4385,1.2343 9.44984,1.1256 4.11632,-0.089 8.07974,0.2819 8.8076,0.8247 0.72785,0.5429 3.04816,1.0032 5.15625,1.023 14.4557,0.1354 17.49625,0.461 18.0614,1.9337 1.2041,3.1378 -7.86364,3.5256 -37.66603,1.6106 -4.64063,-0.2982 -12.86719,-0.4671 -18.28125,-0.3753 -5.41406,0.092 -11.63386,-0.3296 -13.82178,-0.936 -2.98307,-0.8269 -4.30044,-0.8352 -5.26713,-0.033 -1.35422,1.1239 -2.3216,1.1756 -18.87984,1.0091 -12.06919,-0.1213 -21.22078,0.5173 -23.61285,1.6478 -2.36436,1.1174 -32.63246,0.2916 -36.49259,-0.9957 -1.08924,-0.3633 -3.57856,-2.5727 -5.53181,-4.9099 -5.70272,-6.8238 -12.22755,-9.3245 -17.75614,-6.8056 -2.94175,1.3404 -2.94396,1.5441 -0.059,5.4545 1.86645,2.5297 2.21808,3.8497 1.77075,6.6472 -0.69844,4.3679 -0.57459,4.3965 19.33783,4.4838 7.99219,0.035 17.90625,0.3122 22.03125,0.6161 18.4872,1.3614 63.2279,2.4783 111.5625,2.7852 28.875,0.1832 58.82813,0.8072 66.5625,1.3864 29.75912,2.2291 32.70224,2.2592 36.37468,0.3722 z m -303.35256,-68.8538 c 12.57135,0 13.4836,-0.1208 15.9375,-2.1686 9.86152,-8.2297 49.84434,-18.9406 53.26102,-14.268 0.86276,1.1799 1.68488,1.357 3.36668,0.7251 5.35964,-2.0137 34.30418,-4.0701 56.13143,-3.9879 7.99219,0.03 19.38281,-0.3434 25.3125,-0.83 5.92969,-0.4868 17.95312,-1.1552 26.71875,-1.4855 15.68711,-0.5911 17.86211,-0.7142 30.9375,-1.7509 17.10956,-1.3565 20.69937,-1.7766 21.66714,-2.5357 0.61588,-0.483 2.97139,-0.1943 5.75877,0.7059 4.51215,1.4573 4.97716,1.4366 10.72723,-0.4769 5.0342,-1.6752 6.51164,-1.8255 9.09482,-0.925 2.46184,0.8582 4.05964,0.7808 7.91812,-0.3835 8.925,-2.693 16.02609,-3.8083 24.99017,-3.9247 4.89844,-0.064 10.47911,-0.6507 12.40149,-1.3046 5.07202,-1.725 24.24009,-0.8974 27.41638,1.1838 6.82575,4.4724 -0.9328,7.7435 -12.40353,5.2295 -6.38875,-1.4003 -10.63695,-0.915 -24.60184,2.8099 -3.86719,1.0315 -9.60092,1.8827 -12.74163,1.8915 -3.14071,0.01 -7.78133,0.6442 -10.3125,1.4121 -5.99626,1.8191 -9.75995,1.7797 -12.48707,-0.1304 -2.2338,-1.5647 -11.36434,-1.9431 -13.57844,-0.563 -1.58863,0.9903 -16.64012,0.3563 -19.55308,-0.8237 -1.76894,-0.7166 -2.94679,-0.7429 -3.75,-0.083 -1.38818,1.139 -13.38685,1.8954 -14.3759,0.9063 -0.37681,-0.3768 -1.22046,-0.2407 -1.87478,0.3023 -1.89855,1.5756 -19.74352,3.7194 -26.53153,3.1873 -13.68354,-1.0727 -17.4058,-1.0621 -22.93402,0.066 -8.87636,1.8101 -25.57304,2.6945 -26.37496,1.3969 -0.38263,-0.6192 -1.72052,-0.844 -3.15347,-0.53 -3.74613,0.8208 -14.5306,1.627 -24.52012,1.8332 -16.98638,0.3504 -17.71014,0.4414 -19.75023,2.4815 -1.41828,1.4182 -1.67178,2.2581 -0.94564,3.1331 0.54566,0.6575 0.7346,1.4529 0.41988,1.7676 -0.31473,0.3148 0.0929,1.2374 0.9058,2.0503 0.81291,0.8129 1.24373,2.0885 0.95737,2.8348 -0.53702,1.3995 58.10935,1.5347 60.36729,0.1392 0.50779,-0.3138 19.43593,-0.5979 42.06252,-0.6311 22.6266,-0.033 47.25645,-0.4466 54.73301,-0.9184 17.05719,-1.0765 30.25669,-1.2617 67.77343,-0.9508 32.8993,0.2726 30.77601,0.5779 31.15326,-4.4802 0.28672,-3.8444 4.67983,-11.1483 13.59248,-22.5985 5.59625,-7.1896 4.3915,-12.9529 -2.77803,-13.2899 -6.11183,-0.2871 -17.16707,0.3545 -25.83489,1.4995 -14.88621,1.9664 -28.51956,3.2225 -40.3125,3.7143 -5.67188,0.2366 -12.84375,0.6504 -15.9375,0.9197 -3.09375,0.2693 -10.26563,0.7227 -15.9375,1.0076 -5.67188,0.2849 -12.84375,0.8884 -15.9375,1.3411 -3.09375,0.4528 -10.89844,1.1035 -17.34375,1.446 -6.44531,0.3426 -17.625,1.2375 -24.84375,1.9888 -23.7363,2.4704 -41.98434,4.1159 -55.58001,5.0118 -7.36587,0.4855 -13.69399,1.0661 -14.0625,1.2902 -0.36849,0.2242 -6.99812,0.6981 -14.73249,1.0531 -7.73438,0.355 -15.85226,1.0322 -18.03975,1.5047 -2.18749,0.4725 -4.29686,0.7741 -4.6875,0.6702 -1.56007,-0.4149 -38.13182,2.7195 -72.429,6.2078 -18.09828,1.8407 -22.54623,2.2314 -37.78752,3.3197 -7.11908,0.5083 -13.31858,1.1558 -13.77667,1.4389 -0.45809,0.2831 -4.33652,0.5563 -8.61873,0.6071 -9.0743,0.1076 -12.15098,1.6542 -13.91327,6.994 -1.78946,5.4221 0.77822,5.8505 31.43994,5.2454 7.73437,-0.1526 20.06308,-0.276 27.39712,-0.2741 z m -42.74598,-24.6574 c 1.73874,-0.7165 6.95823,-1.5421 11.59886,-1.8348 16.60057,-1.0469 18.33175,-1.4564 23.86847,-5.6457 2.81516,-2.1301 6.38379,-4.5058 7.93029,-5.2792 1.54651,-0.7734 3.04007,-2.3606 3.31903,-3.5271 0.27897,-1.1665 1.8783,-2.9533 3.55408,-3.9706 8.44802,-5.1287 -14.12111,-9.8519 -23.71754,-4.9634 -2.47998,1.2633 -20.91942,0.7772 -22.28407,-0.5874 -2.32243,-2.3224 3.87445,-5.6305 10.61718,-5.6678 3.35496,-0.019 7.57371,-0.4845 9.375,-1.0355 1.80128,-0.551 7.33765,-1.1485 12.30303,-1.328 5.3127,-0.1919 9.84597,-0.837 11.01563,-1.5674 1.44468,-0.9022 2.43582,-0.9714 3.62827,-0.2535 0.97009,0.5842 5.28071,0.8369 10.54688,0.6186 4.89844,-0.2032 13.33594,-0.317 18.75,-0.253 9.79083,0.1158 20.20295,-1.3361 21.20466,-2.9568 0.30543,-0.4943 0.99922,-0.4554 1.65991,0.093 1.45648,1.2087 17.7694,-0.3862 23.06697,-2.2553 2.84861,-1.005 4.44839,-1.095 6.35916,-0.3578 1.849,0.7134 3.93452,0.6573 7.56259,-0.2035 3.89372,-0.9238 5.40792,-0.9397 6.79808,-0.071 1.38057,0.8622 4.83554,0.8666 15.1467,0.02 7.347,-0.6036 14.69316,-1.1349 16.32481,-1.1805 1.63165,-0.046 3.20576,-0.3213 3.49802,-0.6125 0.29226,-0.2911 3.80884,-0.1441 7.81462,0.3266 5.9531,0.6996 9.2522,0.5064 18.06448,-1.0576 15.67847,-2.7826 24.55348,-3.7152 26.96542,-2.8336 1.44679,0.5289 3.61986,0.1851 6.83159,-1.0809 2.59045,-1.021 6.42689,-1.8564 8.52543,-1.8564 2.09854,0 6.74954,-0.7082 10.33557,-1.5737 5.2861,-1.2759 7.09831,-1.3646 9.57569,-0.4688 4.19614,1.5174 10.16102,1.3863 12.35274,-0.2715 1.00089,-0.757 3.29637,-1.3976 5.10106,-1.4235 1.80469,-0.026 6.65625,-0.6174 10.78125,-1.3145 4.97655,-0.8412 13.6509,-1.185 25.78125,-1.0223 12.71572,0.1706 19.32764,-0.1101 21.71835,-0.9223 3.7076,-1.2594 11.38502,-0.5875 13.12079,1.1483 2.1912,2.1911 -0.31519,3.2916 -6.23729,2.7386 -4.11269,-0.384 -6.35054,-0.1739 -7.62034,0.7155 -1.97222,1.3814 -19.7442,2.3671 -21.60004,1.198 -0.59799,-0.3767 -1.76353,-0.4254 -2.59005,-0.1083 -0.82654,0.3172 -2.047,0.1251 -2.71213,-0.4269 -0.87246,-0.7241 -1.94356,-0.6228 -3.84522,0.3638 -3.04263,1.5786 -4.94428,1.7474 -5.39032,0.4786 -0.5488,-1.561 -20.88216,1.3727 -25.00919,3.6084 -1.20819,0.6545 -3.20134,0.9379 -4.42923,0.6297 -1.22789,-0.3083 -6.14563,-0.069 -10.92831,0.5317 -4.78267,0.6005 -10.38327,1.1455 -12.44577,1.2109 -2.0625,0.066 -4.29582,0.4594 -4.96294,0.8756 -0.6879,0.429 -1.80839,0.2625 -2.5885,-0.385 -1.09315,-0.9073 -2.25355,-0.8063 -5.65208,0.4915 -2.60857,0.9963 -5.38457,1.4116 -7.11754,1.065 -1.66706,-0.3333 -3.86642,-0.038 -5.32249,0.7145 -4.79337,2.4776 -9.10787,3.2835 -15.95925,2.9811 -3.80341,-0.168 -8.2331,0.036 -9.84375,0.4541 -3.35407,0.87 -12.16496,1.6995 -24.8179,2.3365 -4.82046,0.2427 -9.20578,0.714 -9.74515,1.0473 -1.22329,0.7561 -13.45029,1.5425 -20.59573,1.3247 -2.94543,-0.09 -6.22781,0.3037 -7.29418,0.8744 -1.06637,0.5707 -4.35179,1.2251 -7.30092,1.4544 -2.94914,0.2293 -7.68238,0.8267 -10.51832,1.3277 -2.83594,0.501 -8.22889,1.3708 -11.98433,1.933 -3.75544,0.562 -8.81794,1.6474 -11.25,2.4121 -2.43206,0.7645 -8.3478,1.7862 -13.14608,2.2703 -14.3898,1.4519 -26.63088,12.1332 -12.68738,11.0708 3.17998,-0.2424 5.00529,0.679 5.00529,2.5263 0,2.7875 3.25872,3.2405 12.30296,1.7103 4.83493,-0.818 10.44827,-1.441 12.47409,-1.3846 2.02581,0.056 5.18987,-0.2882 7.03125,-0.766 1.84137,-0.4778 9.46514,-1.1257 16.9417,-1.4398 7.47656,-0.3141 15.49219,-0.9401 17.8125,-1.3912 2.32031,-0.451 8.4375,-1.27 13.59375,-1.8199 5.15625,-0.5501 13.40245,-1.4472 18.32488,-1.9936 4.92244,-0.5466 9.64279,-0.7279 10.48966,-0.4029 0.84687,0.325 3.78037,0.1389 6.51887,-0.4136 2.7385,-0.5525 9.83065,-1.4663 15.76034,-2.0306 12.05349,-1.1473 15.51613,-1.5 27.65625,-2.8173 4.64062,-0.5035 11.8125,-1.0474 15.9375,-1.2085 15.07871,-0.589 41.24137,-2.4701 46.33353,-3.3314 2.87593,-0.4863 10.29147,-1.149 16.47897,-1.4724 14.05232,-0.7344 20.26086,-1.3628 21.51987,-2.178 0.979,-0.6338 17.02241,-1.1069 34.73013,-1.024 13.67156,0.064 14.92808,-0.5982 14.15207,-7.4572 -0.62969,-5.5657 2.91503,-15.5623 6.26453,-17.6667 3.25117,-2.0426 10.17716,-11.5593 9.88946,-13.5886 -0.31246,-2.204 -16.2694,-2.9251 -27.02481,-1.2213 -1.80469,0.286 -7.28906,0.704 -12.1875,0.929 -10.08854,0.4635 -28.75734,1.955 -42.65625,3.4078 -5.15625,0.539 -14.85938,1.3467 -21.5625,1.7949 -6.70313,0.4484 -13.875,1.0156 -15.9375,1.2606 -2.0625,0.2451 -8.17969,0.7535 -13.59375,1.1299 -5.41406,0.3764 -11.10938,0.8028 -12.65625,0.9474 -1.54688,0.1447 -5.97656,0.48 -9.84375,0.7451 -13.66627,0.9371 -20.23894,1.6258 -27.65625,2.8977 -4.125,0.7073 -14.03906,1.5756 -22.03125,1.9296 -7.99219,0.3539 -15.375,0.8049 -16.40625,1.0021 -4.00092,0.765 -34.61672,3.2605 -85.3125,6.9539 -6.70313,0.4884 -15.35156,1.3209 -19.21875,1.8501 -3.86719,0.5291 -10.61719,1.1125 -15,1.2965 -10.30622,0.4325 -42.16197,3.2602 -43.0733,3.8235 -0.38542,0.2382 -5.93363,0.6868 -12.32936,0.9969 -28.65752,1.3896 -29.08023,1.5926 -22.38354,10.7538 4.57941,6.2646 7.79431,12.8122 7.13477,14.531 -0.26791,0.6982 0.10271,1.7589 0.82362,2.3572 0.74647,0.6195 1.14513,2.1624 0.92606,3.5842 -1.79621,11.6566 -1.6017,11.9947 5.27164,9.1623 z m 13.47386,-55.3672 c 2.57812,-0.2 9.42221,-0.6629 15.20909,-1.0286 9.07558,-0.5738 10.59726,-0.9036 11.07217,-2.3998 0.32458,-1.0228 2.06661,-2.143 4.24403,-2.7293 3.30276,-0.8894 4.14129,-1.7545 3.81532,-3.9366 -0.32073,-2.147 2.10084,-5.6419 4.4851,-6.4731 6.6966,-2.3345 4.15735,-7.6028 -3.49747,-7.2563 -3.35995,0.1519 -6.0906,-0.2468 -7.39196,-1.0797 -1.71085,-1.0948 -3.00291,-1.1267 -7.55644,-0.1861 -9.71694,2.007 -12.62665,1.2908 -10.54646,-2.5961 0.57369,-1.072 1.96585,-1.8944 3.20674,-1.8944 1.20609,0 3.92717,-0.6119 6.04685,-1.3597 2.82762,-0.9977 7.03847,-1.2707 15.81213,-1.0253 6.70098,0.1875 12.71041,-0.068 13.66919,-0.5812 0.94105,-0.5036 6.99228,-1.3154 13.44719,-1.804 7.67433,-0.5809 12.76339,-1.4316 14.70411,-2.4581 2.2446,-1.1874 4.9587,-1.5134 11.13657,-1.3381 4.49277,0.1275 9.00207,-0.2142 10.02067,-0.7594 1.01859,-0.5451 5.35832,-1.1758 9.64383,-1.4014 14.64751,-0.7713 34.09711,-2.3469 40.63481,-3.2917 3.59262,-0.5192 8.78741,-0.9523 11.54399,-0.9625 2.75658,-0.01 7.18626,-0.6224 9.84375,-1.3603 2.65748,-0.738 10.37452,-1.5418 17.14897,-1.7861 6.77446,-0.2443 13.24255,-0.9394 14.37355,-1.5447 1.13099,-0.6052 5.50232,-1.0931 9.71405,-1.084 4.21175,0.01 10.61084,-0.5528 14.22022,-1.2486 3.60937,-0.6958 9.94672,-1.5155 14.08297,-1.8216 4.13627,-0.306 8.95603,-0.9682 10.71057,-1.4714 1.75455,-0.5032 5.33127,-0.9122 7.94827,-0.9089 26.28287,0.033 49.88174,-1.1184 55.20026,-2.6938 4.56263,-1.3515 21.01658,-3.2746 22.65095,-2.6475 0.79409,0.3048 6.18864,-0.037 11.98789,-0.7594 12.01903,-1.4971 14.4945,-0.8121 11.29063,3.1244 -1.47323,1.8101 -2.79891,2.1173 -10.59029,2.4538 -24.66929,1.0655 -28.48747,1.4544 -30.28832,3.0851 -1.83152,1.6585 -3.51519,1.7655 -19.51972,1.24 -3.93349,-0.1291 -9.73113,0.2727 -12.88364,0.8929 -4.38392,0.8625 -6.04308,0.8693 -7.0554,0.029 -0.72796,-0.6043 -2.31314,-0.8778 -3.52262,-0.608 -1.20948,0.2697 -6.4178,0.712 -11.57405,0.9829 -10.6161,0.5576 -21.40836,1.8617 -22.86685,2.7631 -0.53876,0.333 -5.1063,1.0293 -10.15011,1.5475 -5.0438,0.5182 -10.96351,1.1787 -13.15492,1.4679 -2.60091,0.3432 -3.98437,0.1661 -3.98437,-0.5102 0,-1.7337 -2.56274,-1.1549 -3.04455,0.6876 -0.45224,1.7294 -10.538,2.7344 -34.66186,3.4541 -3.46509,0.1034 -8.19921,0.7197 -10.52025,1.3695 -2.32104,0.6499 -5.36736,0.9623 -6.76959,0.6943 -1.40224,-0.2682 -3.41813,0.073 -4.47976,0.7577 -1.35116,0.8716 -5.21503,1.2137 -12.87939,1.1405 -6.62832,-0.064 -11.43783,0.2961 -12.1875,0.9106 -0.68109,0.5584 -4.19148,1.3047 -7.80085,1.6585 -3.60938,0.3537 -7.95056,1.1189 -9.64708,1.7005 -2.29664,0.7871 -3.52119,0.7845 -4.79381,-0.01 -2.02454,-1.2645 -8.82254,-0.5765 -12.46568,1.2614 -1.39236,0.7023 -4.39822,1.277 -6.67969,1.277 -3.85902,0 -4.18732,0.1961 -4.71062,2.8125 -0.4432,2.2161 -1.05465,2.8125 -2.8831,2.8125 -1.27633,0 -2.67001,0.6244 -3.09705,1.3874 -0.42705,0.7632 -2.20124,2.4387 -3.94264,3.7234 -3.7352,2.7558 -3.38097,2.9546 6.79766,3.8158 7.65231,0.6475 8.02065,0.8942 8.52401,5.7079 0.37263,3.5634 1.73693,3.6896 20.10327,1.8586 20.67802,-2.0615 39.56471,-3.3738 55.91973,-3.8854 7.73437,-0.242 16.17187,-0.7149 18.75,-1.051 2.57812,-0.3361 8.27344,-0.6942 12.65625,-0.7957 9.30816,-0.2156 21.76661,-1.1973 25.78125,-2.0314 1.54687,-0.3214 4.28906,-0.6733 6.09375,-0.7817 1.80469,-0.1086 7.71094,-0.6543 13.125,-1.2127 16.29016,-1.6801 33.71507,-3.1117 42.65625,-3.5045 4.64062,-0.2039 9.70312,-0.5818 11.25,-0.8399 1.54687,-0.2581 9.35156,-0.9147 17.34375,-1.4591 7.99219,-0.5444 17.0625,-1.3981 20.15625,-1.897 3.09375,-0.499 10.89844,-1.1376 17.34375,-1.4191 17.11125,-0.7477 19.45781,-0.9012 26.95312,-1.7635 7.69613,-0.8853 7.62175,-0.7802 4.46443,-6.3032 -1.28286,-2.2441 -2.33755,-5.0442 -2.34375,-6.2225 -0.007,-1.1783 -0.6256,-3.0799 -1.37641,-4.2258 -1.82892,-2.7912 -1.47327,-6.0626 0.72149,-6.6365 2.11624,-0.5535 1.7183,-2.4027 -0.81843,-3.8034 -1.00056,-0.5525 -2.08941,-1.3764 -2.41966,-1.8311 -0.33026,-0.4547 -2.06481,-0.552 -3.85455,-0.2163 -2.32868,0.4369 -3.58473,0.2121 -4.41681,-0.7905 -1.30315,-1.5702 -0.25309,-2.1628 7.46557,-4.2127 7.65351,-2.0326 9.35466,-2.169 10.91381,-0.8751 1.32799,1.1022 1.98278,0.7281 5.14512,-2.9392 5.51513,-6.3957 4.70974,-8.4647 -2.36061,-6.0642 -2.33914,0.7942 -5.85084,1.3886 -7.80377,1.3211 -5.6788,-0.1964 -43.83125,1.7493 -55.1133,2.8107 -5.67188,0.5335 -24.44531,1.8965 -41.71875,3.0287 -17.27344,1.1324 -32.67188,2.1696 -34.21875,2.3052 -1.54688,0.1354 -5.44984,0.4558 -8.67325,0.7118 -3.22342,0.256 -6.59842,0.679 -7.5,0.94 -1.93719,0.5607 -16.25909,1.3449 -37.733,2.0661 -8.50781,0.2857 -16.73438,0.7023 -18.28125,0.9257 -3.233,0.4669 -25.71404,1.8848 -51.5625,3.2524 -15.14095,0.801 -31.80045,1.7204 -37.03125,2.0436 -0.77344,0.048 -3.30469,-0.033 -5.625,-0.1801 -2.32031,-0.1469 -6.96094,0.084 -10.3125,0.5146 -3.35156,0.4299 -6.40496,0.6983 -6.78533,0.5965 -0.38037,-0.1018 -7.55224,0.4231 -15.9375,1.1665 -22.7541,2.0173 -41.57601,3.4752 -49.42172,3.8281 -3.84357,0.1728 -9.03053,0.5951 -11.52658,0.9384 -2.49606,0.3433 -6.73414,0.7399 -9.41795,0.8815 -2.68382,0.1414 -6.86057,0.5656 -9.28167,0.9424 l -4.40201,0.6853 1.82388,3.403 c 1.00314,1.8716 1.82388,4.0466 1.82388,4.8334 0,0.7866 1.26562,2.4758 2.8125,3.7535 1.54687,1.2777 2.8125,2.6613 2.8125,3.0746 0,0.4132 0.88657,1.9505 1.97016,3.4161 2.46362,3.3323 3.13584,10.6835 1.69875,18.5772 -1.74848,9.6042 -2.7974,9.2567 22.11234,7.3246 z m 10.66836,-61.3575 c 9.01977,-1.37 19.84855,-10.4958 16.46702,-13.8773 -1.24634,-1.2464 -1.65949,-1.2358 -3.68958,0.094 -2.86061,1.8743 -4.22705,1.9039 -4.22705,0.092 0,-1.6257 -1.4748,-1.8747 -2.38463,-0.4025 -0.38232,0.6185 -2.03454,0.7647 -4.3065,0.3808 -2.17491,-0.3674 -4.17891,-0.2139 -4.88793,0.3745 -1.92064,1.594 -8.10844,-0.4722 -8.10844,-2.7076 0,-2.1237 1.90581,-3.2494 7.03125,-4.1537 2.0625,-0.3637 4.71113,-1.2806 5.88586,-2.0372 1.17471,-0.7568 2.48351,-1.161 2.90843,-0.8985 0.42493,0.2626 3.04378,-0.3526 5.81967,-1.3672 2.77589,-1.0147 6.03333,-1.8448 7.23876,-1.8448 1.20543,0 5.43013,-1.097 9.38823,-2.4376 5.81535,-1.9699 8.29559,-2.3389 12.92293,-1.9227 4.59904,0.4135 7.04433,0.056 12.42102,-1.8132 4.95094,-1.7219 9.31987,-2.4412 16.77363,-2.7619 16.01409,-0.6892 22.94625,-1.4302 26.73857,-2.8585 4.23758,-1.5959 24.22961,-1.841 27.04989,-0.3316 1.32731,0.7103 4.90259,0.6919 12.36025,-0.064 10.52707,-1.0662 16.12474,-1.4476 34.39901,-2.3432 5.41406,-0.2654 13.83611,-0.6789 18.71566,-0.919 4.87955,-0.2401 11.17104,-0.9138 13.9811,-1.4972 2.81005,-0.5833 8.09894,-1.218 11.75309,-1.4103 8.71465,-0.4585 16.2523,-1.5979 27.46083,-4.151 2.16807,-0.4939 5.1755,-0.6512 6.68318,-0.3497 1.57289,0.3145 3.01307,0.1083 3.37902,-0.4838 0.40775,-0.6597 -0.31205,-1.0195 -1.99567,-0.9977 -1.4484,0.019 -39.12565,-0.1797 -83.72721,-0.4412 -161.15411,-0.9446 -209.0625,-0.822 -209.0625,0.5354 0,0.8861 3.57872,8.8558 8.71959,19.418 2.68363,5.5136 0.17766,23.2916 -4.13736,29.3515 -3.88243,5.4524 10.15745,6.1189 38.42988,1.8246 z m 51.67539,-3.2465 c 1.79146,-0.1011 2.27006,-0.5741 2.03103,-2.0072 -0.61927,-3.7129 -1.79201,-3.8201 -12.1493,-1.1107 -13.72514,3.5904 -14.30795,4.6861 -2.06923,3.8902 5.41406,-0.352 10.89844,-0.6995 12.1875,-0.7723 z m 78.75,-4.3472 c 9.53906,-0.5277 18.39844,-1.1655 19.6875,-1.4175 1.28906,-0.2519 8.67187,-0.6776 16.40625,-0.9461 23.96622,-0.8319 51.11555,-2.6257 63.28125,-4.1812 3.86719,-0.4945 11.46094,-1.1445 16.875,-1.4446 5.41406,-0.3001 14.48437,-0.9072 20.15625,-1.3491 5.67187,-0.4419 12.31657,-0.7372 14.76599,-0.6562 2.44942,0.081 4.55879,-0.1396 4.6875,-0.4902 0.21486,-0.5851 5.80727,-1.1603 34.92151,-3.5919 5.67187,-0.4737 12.63281,-1.3359 15.46875,-1.9161 2.83594,-0.5801 10.21875,-0.9433 16.40625,-0.8071 17.32042,0.3813 18.27629,0.3283 19.69235,-1.093 1.35472,-1.3596 -0.42019,-4.9782 -5.96691,-12.1649 -1.01786,-1.3188 -2.58456,-4.6938 -3.48156,-7.5 -0.897,-2.8062 -1.719,-5.221 -1.82665,-5.3664 -0.75856,-1.0242 -47.40931,-0.3964 -49.99023,0.6726 -2.21144,0.9161 -3.28229,0.9585 -4.23462,0.1682 -0.95421,-0.7919 -3.11737,-0.6769 -8.60403,0.4579 -4.05033,0.8376 -9.44638,1.3123 -12.06141,1.061 -4.53028,-0.4353 -8.24567,0.823 -10.07405,3.4119 -0.54688,0.7744 -11.50498,1.8853 -16.26539,1.6491 -5.31921,-0.264 -9.25417,0.055 -11.53037,0.9354 -1.39267,0.5385 -5.80299,0.9641 -9.80072,0.9458 -4.47344,-0.021 -8.588,0.518 -10.69964,1.4004 -1.88707,0.7884 -7.26465,1.6042 -11.95016,1.8129 -9.07883,0.4045 -11.44175,0.6735 -18.83161,2.145 -5.85796,1.1664 -21.5088,1.1567 -25.46648,-0.016 -2.18934,-0.6486 -3.87828,-0.4978 -6.44699,0.5754 -2.34746,0.9808 -7.94343,1.6197 -17.18977,1.9626 -7.54009,0.2795 -15.25735,0.9186 -17.14947,1.4202 -1.89212,0.5016 -6.32181,1.0918 -9.84375,1.3117 -12.64855,0.7894 -24.057,3.5231 -27.21037,6.5201 -1.13125,1.0751 -2.92422,2.7668 -3.98437,3.7595 -6.90274,6.4626 3.0781,15.1029 16.3537,14.1572 3.60937,-0.2571 14.36719,-0.8992 23.90625,-1.4269 z m -101.89106,-1.362 c 1.96772,-0.7019 4.37778,-2.0001 5.3557,-2.8851 0.97792,-0.885 2.37318,-1.3808 3.10059,-1.1016 0.72742,0.2791 3.37985,-0.4949 5.8943,-1.7201 l 4.57172,-2.2277 -3.75,0.5135 c -5.97822,0.8185 -17.62049,4.0761 -19.92187,5.5743 -4.57941,2.981 -1.63799,4.1247 4.74956,1.8467 z m 347.93822,-53.8075 c 0.62279,-1.9623 -0.0358,-42.2605 -0.70158,-42.9262 -0.70557,-0.7056 -47.5679,-1.2618 -151.12683,-1.7937 -53.625,-0.2754 -117.96094,-0.6844 -142.96875,-0.909 -50.60046,-0.4544 -48.60742,-0.6996 -47.15985,5.8032 0.55375,2.4874 1.06942,7.8977 1.14593,12.0227 0.0765,4.125 0.57046,8.8434 1.09768,10.4853 0.66723,2.0781 0.63755,4.7556 -0.0976,8.81 -1.32057,7.2824 -1.27963,7.3103 9.69856,6.6099 4.72812,-0.3017 13.02626,-0.4947 18.44032,-0.429 69.43144,0.8423 134.7222,1.4237 186.5625,1.6615 43.13561,0.1978 65.15219,0.6392 69.15823,1.3863 3.23234,0.6029 6.27399,0.8507 6.7592,0.5508 2.71577,-1.6784 42.87855,-0.1226 44.73406,1.7329 0.8741,0.8741 3.86738,-1.1433 4.45817,-3.0047 z m -385.98186,-2.2562 c 3.22971,0 5.90355,-0.2636 5.94187,-0.5859 0.31851,-2.6789 1.03458,-5.2952 1.67977,-6.1374 0.65551,-0.8556 0.80933,-19.1939 0.27792,-33.1325 l -0.15236,-3.9964 -20.39063,0.2464 -20.39062,0.2465 -0.24782,11.25 c -0.13629,6.1875 0.0746,15.6796 0.46875,21.0937 l 0.71657,9.8438 5.625,1.1081 c 3.21311,0.6329 8.83535,0.8841 13.11217,0.5859 4.11795,-0.2872 10.12967,-0.5222 13.35938,-0.5222 z m 392.1222,-46.8967 c 4.81584,-1.7103 5.625,-2.4217 5.625,-4.945 0,-1.8565 0.43359,-2.242 2.34375,-2.0839 2.90026,0.24 2.96395,1.0143 0.23437,2.8494 -2.54202,1.709 -1.67126,3.0069 1.48575,2.2145 3.05454,-0.7666 3.86988,-4.8451 1.45199,-7.263 -1.94839,-1.9484 -2.81359,-2.0959 -13.01586,-2.2186 -3.86719,-0.047 -12.72656,-0.4091 -19.6875,-0.8058 -20.54405,-1.1707 -263.6969,-1.4685 -265.13984,-0.3248 -0.86556,0.6861 -2.21834,0.6217 -4.53419,-0.2157 -2.56738,-0.9284 -20.50426,-1.2054 -80.7436,-1.247 l -77.44299,-0.053 -1.34048,2.0189 c -1.12041,1.6874 -1.1353,2.2662 -0.0907,3.5248 0.68739,0.8283 1.68817,2.3668 2.22392,3.4189 0.91386,1.7947 1.95974,1.9302 16.9116,2.1928 8.76562,0.1541 16.57031,0.3115 17.34375,0.3499 7.51637,0.3737 18.72124,0.4245 30,0.136 13.77739,-0.3523 23.30585,-0.4209 52.03125,-0.3751 37.34033,0.06 51.1396,0.3345 59.53125,1.1851 4.89844,0.4966 13.54687,0.7091 19.21875,0.4721 17.8364,-0.7453 31.4188,-0.5542 41.16983,0.5794 6.06518,0.7051 13.94511,0.8501 22.09723,0.4064 21.1221,-1.1493 182.27412,-0.4245 183.52416,0.8254 0.85621,0.8562 3.21176,0.6342 6.80253,-0.641 z m -371.25,-20.6126 c 4.89844,0.1238 15.02344,0.391 22.5,0.5938 7.47656,0.2028 18.83532,0.1015 25.24169,-0.225 l 11.64795,-0.5938 -0.17058,-16.4063 c -0.0938,-9.0234 -0.14885,-17.6719 -0.12231,-19.2187 0.0923,-5.3845 1.71603,-51.582 1.91107,-54.375 0.10801,-1.5469 0.10184,-10.4063 -0.0137,-19.6875 -0.11555,-9.2813 -0.17974,-24.2579 -0.14264,-33.2813 0.0668,-16.2341 -0.77467,-23.443 -3.29968,-28.2697 -0.71598,-1.3686 -1.30178,-3.7492 -1.30178,-5.2903 0,-1.5422 -0.59248,-3.0292 -1.31785,-3.3076 -0.72481,-0.2781 -1.60154,-1.7973 -1.94826,-3.376 -0.34673,-1.5786 -1.32055,-3.2565 -2.16404,-3.7285 -1.11319,-0.623 -1.59787,-2.4349 -1.76794,-6.6092 -0.12887,-3.163 -0.60267,-8.1581 -1.05289,-11.1004 -0.98998,-6.4697 -0.93807,-17.1005 0.0912,-18.6896 0.4106,-0.634 0.34603,-2.7433 -0.14348,-4.6875 -2.52195,-10.0165 -2.76503,-13.3645 -2.46875,-34.0037 0.45272,-31.5368 1.91247,-37.0493 13.6929,-51.7087 1.10051,-1.3695 1.95523,-3.4788 1.89938,-4.6875 -0.5012,-10.846 -1.93878,-21.4683 -3.10707,-22.9582 -0.46285,-0.5903 -0.74854,-1.434 -0.63488,-1.875 0.11367,-0.441 -0.13667,-3.9659 -0.5563,-7.8331 -0.41964,-3.8672 -0.85792,-9.5625 -0.97396,-12.6563 -0.11604,-3.0937 -0.72444,-9.8437 -1.352,-15 -0.62756,-5.1562 -1.32384,-11.2734 -1.54731,-13.5937 -0.22345,-2.3203 -1.03477,-5.9135 -1.80294,-7.9848 -0.79965,-2.1562 -1.32719,-6.3639 -1.23414,-9.8437 0.22299,-8.3387 -1.68989,-28.8281 -3.04686,-32.63558 -0.6312,-1.7712 -0.86699,-4.9085 -0.5453,-7.2555 0.32049,-2.3382 0.10305,-5.25978 -0.5004,-6.72331 -0.97992,-2.37675 -1.77402,-6.95887 -3.12243,-18.01734 -0.28026,-2.29838 -0.89265,-4.41572 -1.36085,-4.70503 -1.89163,-1.16916 -2.25151,-10.27941 -0.48326,-12.23335 1.62143,-1.79165 1.60707,-1.85137 -0.44513,-1.85137 -1.5214,0 -1.96455,-0.40669 -1.56832,-1.43925 1.93903,-5.05303 0.60466,-21.01978 -2.01154,-24.06985 -0.88837,-1.03567 -1.1554,-2.47729 -0.75463,-4.07405 0.34112,-1.35916 0.17544,-3.00714 -0.3682,-3.66218 -0.54363,-0.65504 -1.42003,-4.63313 -1.94755,-8.8402 -0.52752,-4.20708 -1.39361,-8.792 -1.92465,-10.18873 -0.53104,-1.39672 -1.14563,-7.60874 -1.36576,-13.80449 -0.46093,-12.9731 -1.04056,-18.39961 -2.80549,-26.265 -0.69422,-3.09375 -1.50405,-8.75618 -1.79962,-12.58319 -0.29559,-3.82701 -0.92602,-7.42644 -1.40097,-7.99871 -0.99919,-1.20395 -3.0492,-16.30328 -2.36399,-17.41197 1.61912,-2.6198 -4.26946,-11.18664 -7.7058,-11.21053 -6.78033,-0.0471 -12.92831,-12.06691 -8.18541,-16.00315 0.80743,-0.67012 2.12241,-2.51474 2.92216,-4.09917 0.79975,-1.58443 2.23472,-3.73705 3.1888,-4.7836 2.55787,-2.80575 2.45424,-8.07136 -0.39615,-20.12843 -2.5838,-10.92943 -3.3215,-13.56693 -4.7525,-16.99179 -0.77576,-1.85668 -1.88917,-6.07041 -2.47425,-9.36386 -1.56761,-8.82436 -2.48076,-12.89729 -4.18004,-18.64435 -0.83851,-2.83594 -2.76623,-9.87625 -4.2838,-15.64515 -1.51757,-5.7689 -3.58174,-12.40776 -4.58704,-14.75302 -1.00529,-2.34526 -1.9113,-6.06275 -2.01333,-8.2611 -0.11789,-2.53964 -1.02069,-5.12985 -2.47608,-7.10402 -1.447,-1.96281 -2.10117,-3.83123 -1.77633,-5.07345 0.28282,-1.08152 0.13822,-2.66898 -0.32136,-3.52769 -0.45957,-0.85873 -1.00476,-2.58349 -1.21153,-3.83281 -0.20677,-1.24934 -0.86379,-3.45913 -1.46003,-4.91067 -0.59625,-1.45153 -1.08409,-3.00752 -1.08409,-3.45773 0,-1.28707 -4.70785,-16.22015 -5.68451,-18.03101 -0.48289,-0.89535 -0.87798,-2.37816 -0.87798,-3.29514 0,-0.91698 -0.85383,-3.26028 -1.8974,-5.20735 -1.04356,-1.94707 -2.55071,-6.3572 -3.34922,-9.80029 -0.7985,-3.44308 -2.01998,-7.32815 -2.7144,-8.63348 -2.22329,-4.17923 -4.2263,-10.30302 -4.23225,-12.93919 -0.003,-1.40753 -0.58754,-3.67413 -1.29856,-5.03687 -0.71104,-1.36275 -2.20516,-5.11409 -3.32028,-8.33632 -2.47215,-7.14347 -4.16204,-10.49934 -6.09482,-12.10341 -0.80744,-0.67011 -1.46807,-2.18691 -1.46807,-3.37067 0,-3.12773 -0.95047,-5.11813 -2.44405,-5.11813 -0.71827,0 -1.30595,0.77837 -1.30595,1.7297 0,0.95133 -0.78326,2.43854 -1.74058,3.3049 -2.91343,2.63662 -4.45671,-0.16418 -3.17551,-5.76302 1.12499,-4.9162 0.87731,-5.83408 -1.57424,-5.83408 -6.54658,0 -12.82833,-27.33603 -7.22352,-31.43436 4.53745,-3.31786 12.04342,3.05815 13.73973,11.67134 1.50813,7.65763 2.25195,9.67334 3.96933,10.75664 2.11691,1.33531 3.21387,-0.0555 1.81301,-2.29862 -4.11888,-6.59538 -0.3933,-20.57 5.48389,-20.57 3.19307,0 4.27138,9.50638 2.2239,19.60588 -1.01905,5.0266 5.62643,7.89969 10.32512,4.46392 1.79858,-1.31515 1.78915,-1.77057 -0.29304,-14.17237 -1.06346,-6.33408 -0.83825,-7.08493 2.12507,-7.08493 4.53678,0 6.67059,4.04818 6.67059,12.65522 0,8.86792 0.21626,9.31762 4.07339,8.47045 3.49336,-0.76727 3.98468,-2.0026 2.70429,-6.79954 -2.20911,-8.27649 2.14187,-16.65057 7.49845,-14.4318 l 2.77909,1.15113 -0.4427,7.21165 c -0.24349,3.9664 -0.84136,7.97822 -1.32862,8.91513 -1.36689,2.62836 1.43856,6.26526 4.83293,6.26526 6.16553,0 12.57423,-5.43142 9.26438,-7.85163 -4.72084,-3.45197 -3.5478,-18.39837 1.44398,-18.39837 4.08949,0 7.98889,11.53591 5.34528,15.81338 -1.08866,1.76147 -0.16705,4.69731 1.80604,5.75327 3.04361,1.6289 6.81637,-3.05986 7.07002,-8.78656 0.3999,-9.02873 5.4336,-15.64371 9.10806,-11.96925 1.68593,1.68593 0.73786,10.09573 -1.77994,15.78894 -2.92118,6.60529 -1.89475,8.36052 4.27915,7.31745 4.39186,-0.742 7.25747,-4.02305 6.76903,-7.75035 -0.3698,-2.82203 1.61772,-11.29722 2.82419,-12.04285 3.61262,-2.23273 5.43361,5.08992 3.02422,12.16111 -1.82878,5.36717 -0.56712,7.50746 4.95364,8.40336 6.50756,1.05603 8.6663,-1.12017 8.45562,-8.52397 -0.17101,-6.00956 2.16723,-14.28953 4.03533,-14.28953 3.62426,0 5.89253,11.24567 3.44823,17.0957 -1.67688,4.01336 -1.3702,4.40372 3.11719,3.96777 1.80469,-0.17532 3.79776,-0.3457 4.42905,-0.37862 1.68805,-0.088 3.49207,-4.27837 5.3736,-12.48173 1.51059,-6.58609 1.87729,-7.26562 3.92075,-7.26562 3.13716,0 4.97709,4.00288 3.1561,6.86633 -4.36571,6.865 -4.95663,9.15402 -2.86596,11.10178 6.35608,5.92158 11.96017,3.71677 13.69412,-5.38768 1.97801,-10.38596 5.44927,-13.85139 7.91409,-7.9008 0.96429,2.32802 0.89859,3.60911 -0.38662,7.5384 -1.84127,5.62935 -1.46092,6.53197 2.75243,6.53197 3.7643,0 6.95908,-2.91853 7.12058,-6.5049 0.34388,-7.63603 5.21991,-13.91219 8.3311,-10.72333 1.02945,1.05514 -0.44628,9.12375 -2.52767,13.82002 -1.54119,3.47745 -1.53434,3.67525 0.17055,4.92188 4.07061,2.97651 8.4295,-0.23659 8.49728,-6.26366 0.0546,-4.85383 3.21106,-10.25001 5.9957,-10.25001 2.88993,0 4.19712,4.73453 2.45702,8.89916 -2.82673,6.76534 -1.54265,8.76493 4.53569,7.0631 4.15904,-1.16446 4.30719,-1.32954 4.30719,-4.79939 0,-3.91 3.04929,-12.56381 5.31295,-15.07798 0.78876,-0.87605 1.63932,-4.19474 1.9222,-7.5 0.5469,-6.39018 2.18725,-9.20989 5.3578,-9.20989 1.09442,0 2.9456,-0.66943 4.11372,-1.48762 2.31772,-1.62339 4.85583,-0.52128 4.85583,2.10851 0,0.73084 0.87318,3.04038 1.9404,5.1323 1.06722,2.09193 1.71676,4.02715 1.44342,4.30048 -0.27334,0.27334 0.1396,2.02053 0.91765,3.88264 0.82391,1.9719 1.15481,4.3689 0.79245,5.74031 -1.51874,5.7477 -1.08548,18.71655 0.64361,19.26535 4.2578,1.35137 9.26247,-3.01718 9.26247,-8.08516 0,-6.85519 3.81495,-13.04431 8.04046,-13.04431 4.51385,0 4.73373,8.97756 0.33458,13.66024 -2.44838,2.60618 -2.06713,5.13705 1.00827,6.69302 2.53387,1.282 9.33731,1.64777 9.41379,0.50611 0.0259,-0.38671 0.18869,-3.99169 0.36174,-8.01105 0.34563,-8.02763 1.9059,-10.97332 5.81235,-10.97332 3.15935,0 3.83683,3.82041 1.76063,9.92849 -2.68329,7.89412 -0.73827,9.64957 6.70633,6.05273 3.5394,-1.71006 3.82813,-2.15049 4.36138,-6.65299 0.74311,-6.27435 3.29053,-10.64931 6.416,-11.01885 4.47145,-0.5287 4.16984,10.30009 -0.43091,15.47104 -2.56628,2.88434 -1.48604,5.40736 1.93017,4.50819 1.41155,-0.37153 3.93755,-0.66064 5.61334,-0.64246 1.67578,0.0182 3.08981,-0.25336 3.14228,-0.60342 0.0525,-0.35006 0.23556,-3.31466 0.40684,-6.58799 0.40768,-7.79106 7.03344,-13.78765 9.14739,-8.27877 0.58561,1.52606 -1.78643,10.96082 -3.08125,12.25564 -4.41972,4.41972 1.87795,8.32546 8.45615,5.2444 l 4.70838,-2.20529 -0.42275,-4.55124 c -0.8122,-8.74366 4.41671,-17.34521 6.57149,-10.81011 0.99385,3.01422 0.69474,11.00791 -0.53191,14.21517 -1.44492,3.77792 -0.14923,4.78213 4.32957,3.3556 4.29471,-1.36791 6.83376,-4.2098 6.86233,-7.68087 0.0402,-4.88904 2.01078,-11.84276 3.52008,-12.42194 2.83216,-1.0868 3.29734,0.92428 2.1712,9.38663 -1.16672,8.76736 -0.75604,10.04149 2.92624,9.07856 1.3027,-0.34067 1.97652,0.0956 2.34931,1.52115 1.04911,4.01178 4.15887,1.5431 4.41847,-3.50759 0.18459,-3.59116 1.69129,-5.08179 2.12813,-2.10542 0.41458,2.82468 2.3226,3.46842 3.80492,1.28371 2.9435,-4.33828 4.7586,-2.3937 2.61784,2.8046 -0.45808,1.11235 -0.15257,1.8322 0.95857,2.25858 2.10922,0.80938 4.61995,-0.79125 4.79251,-3.0553 0.78407,-10.28722 3.14025,-16.17653 6.51122,-16.27494 1.75307,-0.0512 2.85431,4.02331 2.14573,7.93894 -2.25549,12.46387 -2.35922,11.52154 1.3447,12.21639 4.46293,0.83726 5.33193,0.10224 5.33193,-4.5099 0,-7.56002 2.01679,-13.66624 4.83863,-14.64994 4.55663,-1.58846 5.95259,2.62495 3.88004,11.71106 -0.88267,3.86961 -1.08194,6.52536 -0.53098,7.07633 1.98661,1.98661 9.62481,-3.30579 9.62481,-6.66888 0,-2.08078 1.48008,-3.29126 2.3343,-1.9091 1.41945,2.29672 4.02452,0.9262 4.65801,-2.45057 0.82681,-4.4073 -0.59904,-5.87755 -2.65581,-2.73853 -2.10912,3.21893 -3.77983,3.11411 -2.9684,-0.18624 1.04562,-4.25276 3.17345,-6.79687 5.68476,-6.79687 3.21061,0 3.44647,9.86297 0.35706,14.93066 l -1.95809,3.21191 2.19597,1.68912 c 4.82349,3.71021 10.71336,-0.56942 9.72149,-7.06373 -0.66324,-4.34253 1.56142,-10.90682 4.26952,-12.59805 2.89771,-1.80964 3.62794,1.69191 2.07167,9.93399 -1.47459,7.80953 -0.84859,9.59375 3.35743,9.56925 4.01864,-0.0234 5.27584,-1.40791 5.27584,-5.81001 0,-2.9017 0.38981,-4.0406 1.40625,-4.10855 3.90801,-0.26124 4.0202,-0.33066 2.83737,-1.75587 -0.62821,-0.75695 -1.62908,-1.2843 -2.22416,-1.17187 -1.25558,0.2372 -0.89467,-2.98641 0.52817,-4.71748 2.49702,-3.03797 4.48362,-1.34181 4.48362,3.82813 0,7.93863 1.79189,7.28165 6.56796,-2.40811 6.45615,-13.09835 20.18831,-11.71381 18.21462,1.83647 -1.40322,9.63378 -10.51935,28.07491 -14.855,30.05036 -1.28556,0.58575 -3.0002,2.34671 -3.81029,3.91326 -0.88506,1.71149 -3.27596,3.76196 -5.99057,5.13755 -4.82375,2.44438 -8.54147,8.7833 -10.03478,17.10987 -0.35306,1.96864 -1.18951,4.21216 -1.85876,4.9856 -0.66927,0.77344 -1.86829,3.9375 -2.6645,7.03125 -4.12949,16.04553 -6.29798,23.37105 -7.26216,24.53282 -0.58776,0.70821 -1.18316,2.22805 -1.32311,3.37742 -0.13994,1.14937 -2.19033,7.06553 -4.55643,13.14704 -2.36609,6.0815 -4.30198,12.10806 -4.30198,13.39235 0,1.2843 -0.64917,3.32585 -1.44261,4.53678 -0.79343,1.21093 -1.35927,2.56719 -1.25741,3.0139 0.10185,0.44671 -0.0564,1.445 -0.35177,2.21844 -2.54276,6.65928 -6.42785,18.05238 -12.94752,37.96875 -4.21976,12.89063 -10.61625,32.29688 -14.21441,43.125 -3.59815,10.82813 -7.72508,23.40938 -9.17094,27.95833 l -2.62883,8.27083 3.47068,-0.58637 c 6.82777,-1.15354 11.84389,3.78535 8.07464,7.95032 -0.82321,0.90963 -1.92427,3.20228 -2.44682,5.09477 -1.09376,3.96129 -5.34385,7.06759 -9.74126,7.11969 -4.65228,0.0551 -5.84252,1.72697 -7.02336,9.86534 -0.5947,4.09864 -1.48859,9.7724 -1.98643,12.60834 -0.49784,2.83594 -1.42189,9.16406 -2.05344,14.0625 -0.63156,4.89844 -1.48681,9.43785 -1.90058,10.08758 -0.41375,0.64974 -1.12916,6.14623 -1.58977,12.21441 -0.46061,6.06819 -1.48777,12.58945 -2.28257,14.49168 -0.90306,2.16132 -1.44891,6.371 -1.45524,11.22309 -0.006,4.27047 -0.62325,9.7851 -1.37259,12.25474 -0.74933,2.46963 -1.60243,8.16494 -1.89576,12.65625 -0.29334,4.4913 -0.98649,9.57486 -1.54033,11.2968 -0.55384,1.72193 -0.75451,4.3932 -0.44592,5.93614 0.30858,1.54294 0.0791,3.70584 -0.50992,4.80647 -0.58904,1.10062 -1.2316,4.54659 -1.42789,7.65759 -0.62402,9.88988 -0.89922,12.06394 -2.43679,19.25025 -0.82742,3.86719 -1.76752,8.71875 -2.08912,10.78125 -0.32161,2.0625 -1.00047,5.85938 -1.50858,8.4375 -1.96124,9.95115 -2.63983,16.28395 -2.73669,25.53943 -0.0697,6.6626 -0.62566,11.111 -1.81606,14.5313 -0.96422,2.7704 -2.0166,9.4428 -2.40289,15.2349 -0.41169,6.1729 -1.21526,11.1114 -2.0038,12.3149 -0.72406,1.1051 -1.11451,3.1231 -0.86766,4.4844 0.24685,1.3613 -0.15804,4.805 -0.89977,7.6527 -1.52009,5.836 -1.74777,13.3161 -0.46694,15.3404 0.55587,0.8784 0.3876,2.0123 -0.4831,3.2555 -0.73483,1.049 -1.35467,2.9737 -1.37742,4.2769 -0.0228,1.3032 -0.59956,4.4789 -1.28179,7.0571 -0.85979,3.2491 -1.09551,8.3039 -0.7682,16.4732 0.31427,7.8435 0.0973,12.922 -0.6488,15.1826 -1.06859,3.2378 -0.004,6.7406 2.77411,9.1254 1.06617,0.9153 5.46902,9.4103 4.59835,8.8721 -0.48704,-0.301 -0.0448,0.8776 0.98273,2.6192 1.02756,1.7416 3.18154,8.4115 4.78664,14.822 l 2.91834,11.6555 -0.0938,39.8437 -0.0938,39.8438 -2.58183,2.097 c -1.42002,1.1535 -2.61998,2.4191 -2.66658,2.8125 -0.0466,0.3935 -0.75666,2.2163 -1.57787,4.0508 -0.82122,1.8344 -1.33316,4.5766 -1.13766,6.0937 0.1955,1.5171 -0.0347,9.0866 -0.5116,16.821 -1.05209,17.0634 -2.71981,49.9535 -3.3751,66.5625 -0.75007,19.0111 -0.48833,95.3894 0.32962,96.1862 0.63763,0.6212 21.74782,1.2618 73.62297,2.2342 8.25579,0.1548 13.82813,-0.098 13.82813,-0.6281 0,-0.4881 0.84375,-0.6481 1.875,-0.3555 1.03125,0.2926 2.6753,0.7575 3.65344,1.0332 2.53232,0.7138 5.72156,-4.7461 5.72156,-9.7952 0,-3.017 0.58615,-4.4986 2.55251,-6.4519 7.23103,-7.1828 9.15902,-12.211 10.04566,-26.1991 0.54797,-8.6449 1.55905,-13.4628 2.93621,-13.9912 0.73734,-0.283 1.34062,-1.2428 1.34062,-2.1329 0,-0.8902 0.29497,-1.9135 0.6555,-2.274 0.36052,-0.3605 0.54515,-2.4499 0.41029,-4.643 -0.17699,-2.878 0.29274,-4.6714 1.68825,-6.4455 1.0634,-1.3519 1.93346,-2.9188 1.93346,-3.482 0,-0.5632 0.3551,-1.024 0.7891,-1.024 0.68523,0 3.12799,-6.2361 3.4887,-8.9062 0.0697,-0.5157 0.5609,-1.9922 1.09166,-3.2813 0.53075,-1.2891 0.65791,-2.4632 0.28257,-2.6092 -1.24208,-0.4832 1.18648,-9.8543 3.03207,-11.6999 1.13471,-1.1347 1.65335,-2.6414 1.38766,-4.0312 -0.23333,-1.2206 -0.0577,-2.3415 0.39047,-2.4909 0.44809,-0.1493 1.02595,-1.9215 1.28414,-3.938 0.25818,-2.0166 0.91979,-4.2092 1.47023,-4.8724 0.55045,-0.6633 0.72658,-2.0699 0.39143,-3.1259 -0.33532,-1.0565 -0.19003,-1.92 0.32302,-1.92 0.51282,0 0.7737,-1.254 0.57973,-2.7867 -0.19397,-1.5327 0.0649,-3.0447 0.57516,-3.3602 0.5103,-0.3154 0.6725,-1.3779 0.36043,-2.3611 -0.31206,-0.9832 -0.23562,-2.3188 0.16988,-2.968 1.316,-2.1067 1.49376,-3.8171 1.64192,-15.7988 0.11627,-9.4044 0.47357,-12.3061 1.7564,-14.2639 0.88573,-1.3518 1.61043,-3.1055 1.61043,-3.897 0,-0.7917 0.33697,-1.4393 0.7488,-1.4393 0.41184,0 0.7863,-1.582 0.83213,-3.5156 0.19147,-8.0788 1.46714,-16.9303 3.16733,-21.9773 0.99783,-2.962 1.81424,-6.3493 1.81424,-7.5273 0,-1.1781 0.83713,-5.0693 1.86029,-8.6471 1.02316,-3.5778 1.80797,-7.7952 1.74401,-9.372 -0.10795,-2.662 1.15446,-7.1884 3.08386,-11.0573 0.44652,-0.8954 0.81184,-3.1583 0.81184,-5.0287 0,-1.8704 0.8211,-4.9347 1.82467,-6.8095 1.00356,-1.8749 2.21782,-6.5889 2.69835,-10.4754 0.76779,-6.21 2.86811,-12.6917 5.84311,-18.0322 0.50895,-0.9136 1.19497,-3.6558 1.52449,-6.0938 0.36621,-2.7092 1.26937,-4.9088 2.32301,-5.6576 1.05938,-0.7528 1.72387,-2.3819 1.72387,-4.2262 0,-1.6506 1.05469,-4.9824 2.34375,-7.4039 1.28906,-2.4215 2.34635,-4.9494 2.34953,-5.6175 0.003,-0.6682 0.6909,-2.4805 1.5283,-4.0273 0.83738,-1.5469 2.32241,-6.3985 3.30007,-10.7813 2.7773,-12.4506 2.80833,-12.5488 4.59088,-14.5312 0.9273,-1.0313 1.98925,-3.0962 2.35991,-4.5888 0.37067,-1.4926 1.45663,-3.4965 2.41324,-4.4532 0.95663,-0.9566 1.73932,-2.5581 1.73932,-3.559 0,-1.0008 0.36295,-2.0439 0.80656,-2.3181 0.44362,-0.2742 1.05879,-2.3387 1.36707,-4.5878 0.66002,-4.8154 4.89863,-13.7176 7.369,-15.477 2.22239,-1.5827 5.70975,-8.3806 4.93905,-9.6277 -0.32409,-0.5243 0.5037,-1.9663 1.83954,-3.2042 2.17135,-2.0124 2.92881,-4.3242 2.5129,-7.6695 -0.0759,-0.6107 1.7366,-4.4995 4.02782,-8.6416 2.63571,-4.7651 3.98285,-8.2312 3.66761,-9.4366 -0.35051,-1.3404 -0.0448,-1.9053 1.03114,-1.9053 1.71174,0 5.2429,-5.2039 5.2483,-7.7344 0.002,-0.9023 0.38173,-1.6406 0.84399,-1.6406 0.78816,0 27.59583,-47.79232 30.23705,-53.90623 1.03697,-2.40038 6.32948,-11.79872 9.23885,-16.40625 2.76588,-4.38028 9.59489,-17.14725 11.61297,-21.71072 1.29017,-2.91741 2.74985,-5.55412 3.24373,-5.85937 1.33742,-0.8266 6.25534,-9.87824 7.59552,-13.97992 0.64357,-1.9697 1.72053,-3.79248 2.39328,-4.05062 1.17384,-0.45046 7.96312,-10.00213 7.96312,-11.20315 0,-0.32044 0.99938,-1.36873 2.22084,-2.32953 1.22147,-0.9608 2.4765,-3.02542 2.78907,-4.58805 0.43706,-2.18522 1.07128,-2.84114 2.74706,-2.84114 1.67353,0 2.46497,-0.81544 3.4125,-3.51563 0.67847,-1.93359 2.35959,-4.78125 3.73566,-6.32812 1.37615,-1.54688 3.9359,-4.92188 5.68837,-7.5 1.75247,-2.57813 4.90219,-6.77013 6.99947,-9.31555 2.09728,-2.54544 4.23516,-5.34003 4.75078,-6.21022 0.51563,-0.87019 2.50528,-3.94149 4.42153,-6.82512 1.91616,-2.88363 4.55175,-7.26091 5.85675,-9.72729 1.30491,-2.46637 4.95619,-8.49213 8.11369,-13.39057 5.92425,-9.19025 19.61875,-35.31888 26.28795,-50.15625 2.0858,-4.64063 4.789,-10.54688 6.007,-13.125 3.0724,-6.50338 10.7271,-26.52263 11.3694,-29.73442 0.2913,-1.45659 0.8971,-2.8754 1.3461,-3.15292 0.449,-0.27751 0.8164,-1.44999 0.8164,-2.60549 0,-1.15551 0.3597,-2.5017 0.7993,-2.99155 0.4396,-0.48984 1.3476,-3 2.0176,-5.57812 0.6701,-2.57813 2.0118,-6.375 2.9814,-8.4375 0.9698,-2.0625 2.5898,-7.54688 3.6,-12.1875 3.9568,-18.17488 4.6005,-20.72036 5.9275,-23.4375 0.7553,-1.54688 1.6588,-5.13281 2.0075,-7.96875 0.8747,-7.11337 4.0065,-24.82642 5.7506,-32.52483 0.7951,-3.50978 1.8386,-11.8658 2.319,-18.56892 0.4803,-6.70313 1.2627,-13.66406 1.7389,-15.46875 4.6556,-17.64785 2.6688,-112.76387 -2.82,-135 -0.4455,-1.80469 -1.0453,-5.74931 -1.333,-8.76583 -0.5529,-5.7983 -1.0957,-8.55442 -4.6435,-23.57792 -1.2177,-5.15625 -2.7391,-11.90625 -3.3809,-15 -2.0471,-9.86715 -4.6577,-19.42092 -7.9813,-29.20826 -1.7782,-5.23643 -3.2331,-10.2166 -3.2331,-11.06707 0,-0.85046 -0.7786,-3.31611 -1.7302,-5.47923 -1.7162,-3.9011 -4.2378,-10.41831 -7.8693,-20.33919 -1.0382,-2.83594 -2.4426,-6.63281 -3.121,-8.4375 -0.6783,-1.80469 -1.5082,-4.33594 -1.844,-5.625 -0.3359,-1.28906 -4.0983,-9.51563 -8.3608,-18.28125 -4.2627,-8.76563 -8.0779,-16.99219 -8.4784,-18.28125 -0.4005,-1.28906 -1.8902,-4.04076 -3.3105,-6.11487 -1.4203,-2.07412 -3.2607,-5.23818 -4.0898,-7.03125 -0.8289,-1.79307 -3.0255,-6.00232 -4.8811,-9.35388 -1.8556,-3.35156 -4.07084,-7.37864 -4.92256,-8.94906 -0.85172,-1.57042 -2.30241,-3.89073 -3.22369,-5.15625 -3.45647,-4.74814 -6.2655,-9.01832 -9.22256,-14.01969 -1.67672,-2.83594 -4.59638,-7.05469 -6.48807,-9.375 -1.89168,-2.32031 -3.66356,-4.86832 -3.9375,-5.66223 -0.62559,-1.81357 -11.36625,-16.117 -13.32,-17.73849 -0.79781,-0.66213 -1.45059,-1.73522 -1.45059,-2.38466 0,-0.64943 -3.26953,-4.77393 -7.26562,-9.16557 -3.9961,-4.39162 -8.72925,-9.98211 -10.5181,-12.4233 -1.78884,-2.44118 -6.11301,-7.50165 -9.60934,-11.24547 -3.49632,-3.74382 -6.35694,-7.25825 -6.35694,-7.80982 0,-0.55157 -1.42881,-1.97376 -3.17512,-3.16041 -3.70084,-2.51479 -17.42234,-15.38556 -17.5085,-16.42299 -0.0322,-0.38819 -3.06305,-3.23706 -6.73512,-6.33081 -5.84314,-4.9229 -11.98004,-10.38284 -24.08855,-21.43137 -8.58979,-7.83784 -48.45586,-35.28738 -51.24927,-35.28738 -0.18805,0 -8.0471,-4.13886 -17.46455,-9.197447 -33.60626,-18.051675 -58.4828,-29.415484 -80.07945,-36.580976 -17.56773,-5.82875 -29.70124,-9.534077 -31.22041,-9.534077 -0.87036,0 -3.4506,-0.580003 -5.73386,-1.288896 -2.28326,-0.708891 -6.26076,-1.742685 -8.83888,-2.297318 -2.57813,-0.554633 -7.85156,-1.688628 -11.71875,-2.519991 -3.86719,-0.831362 -9.14063,-2.089819 -11.71875,-2.796573 -27.29536,-7.482601 -110.76798,-13.088179 -142.96875,-9.601023 -3.35156,0.362955 -10.94531,1.072056 -16.875,1.575782 -5.92969,0.503724 -13.52344,1.333104 -16.875,1.843066 -3.35156,0.509961 -11.72916,1.779664 -18.61688,2.821561 -6.88772,1.041898 -15.11429,2.567345 -18.28125,3.389883 -3.16696,0.822538 -7.44562,1.69673 -9.50812,1.942647 -2.0625,0.245917 -5.4375,1.027433 -7.5,1.736701 -2.0625,0.709269 -6.91406,1.979618 -10.78125,2.822999 -17.37179,3.788555 -24.06913,5.8423 -47.8125,14.661749 -2.83594,1.053405 -8.95313,3.303109 -13.59375,4.999341 -7.28809,2.663928 -13.38736,5.420511 -25.1541,11.368456 -1.45975,0.737889 -3.43876,1.341616 -4.39779,1.341616 -0.95904,0 -2.03684,0.474319 -2.39514,1.054041 -0.35828,0.579722 -3.23084,2.275289 -6.38344,3.767926 -6.35685,3.009716 -13.40256,6.842547 -21.20078,11.533114 -2.83594,1.705791 -8.45536,4.837579 -12.4876,6.959519 -7.38688,3.8873 -21.21375,12.93384 -42.83805,28.02772 -11.4166,7.96884 -13.54679,9.6435 -22.44507,17.64515 -2.3433,2.10718 -6.58084,5.61976 -9.41678,7.80575 -2.83594,2.186 -9.95449,8.47757 -15.819,13.98129 -5.86452,5.5037 -11.74979,10.85049 -13.0784,11.88174 -4.3117,3.34671 -24.29742,24.61012 -25.84712,27.49955 -0.46105,0.85962 -3.41417,4.32177 -6.5625,7.69366 -6.18429,6.62342 -11.47815,13.05505 -18.84923,22.90034 -2.57812,3.44351 -6.44236,8.49795 -8.58718,11.23208 -2.14482,2.73414 -4.58343,6.18407 -5.41914,7.66651 -2.93385,5.20436 -5.83007,9.32709 -11.54055,16.42784 -1.67579,2.08377 -3.046882,4.17712 -3.046882,4.6519 0,0.47476 -1.385287,3.07157 -3.078412,5.77066 -5.133396,8.1834 -5.349691,8.55521 -6.76566,11.62989 -0.752883,1.63483 -2.587725,4.79889 -4.077427,7.03125 -1.489702,2.23235 -6.365277,11.43621 -10.834612,20.45303 -4.469335,9.01682 -8.532261,16.80041 -9.028726,17.29688 -0.496465,0.49646 -0.915855,1.55657 -0.93198,2.35578 -0.01612,0.79922 -1.066956,3.5625 -2.335179,6.14063 -1.268224,2.57812 -2.309718,5.20356 -2.314432,5.8343 -0.0047,0.63074 -0.820981,2.95105 -1.813925,5.15625 -0.992945,2.20519 -2.742253,6.5407 -3.887352,9.63445 -1.145099,3.09375 -2.631378,6.89062 -3.302842,8.4375 -6.742641,15.53326 -23.370195,74.60516 -24.409584,86.71875 -0.154849,1.80469 -0.547586,4.33594 -0.872752,5.625 -3.633638,14.40497 -7.935725,61.95351 -8.008503,88.51345 -0.06576,24.00172 2.497267,71.19016 4.256197,78.36155 0.316169,1.28906 0.967661,5.29687 1.447761,8.90625 1.530083,11.50314 5.574293,34.41742 7.528529,42.65625 1.039596,4.38281 2.559493,11.13281 3.37755,15 1.627452,7.69343 7.327588,27.23151 9.709639,33.28125 0.406049,1.03125 2.528685,7.35937 4.71697,14.0625 3.59192,11.00272 9.439511,25.67946 14.170702,35.56672 0.971596,2.03044 1.766538,4.15512 1.766538,4.7215 0,3.00705 25.727732,51.3889 35.36837,66.51137 1.945832,3.05227 4.326262,6.84915 5.289842,8.4375 2.05511,3.38761 11.62428,16.64423 14.94536,20.70451 1.26709,1.54913 3.44762,5.55694 4.84563,8.90625 1.398,3.34931 4.18916,8.71603 6.20256,11.92605 2.01341,3.21002 3.66074,6.13599 3.66074,6.50216 0,0.36618 1.62278,2.59136 3.6062,4.94485 1.9834,2.3535 4.31469,5.54471 5.18063,7.09159 3.46461,6.18897 5.85458,9.84075 8.08817,12.35831 1.28906,1.45294 2.87562,3.69638 3.52568,4.98544 5.98796,11.874 16.05829,27.1875 17.87886,27.1875 0.39533,0 1.27105,1.58203 1.94603,3.51562 0.67498,1.9336 1.91988,4.57032 2.76645,5.85938 0.84658,1.28906 1.54591,2.80472 1.55408,3.36825 0.008,0.56344 1.2738,2.28356 2.8125,3.82247 1.53871,1.5389 3.6414,4.42875 4.67265,6.42197 1.03125,1.99312 3.96276,6.81201 6.51446,10.70871 2.55171,3.8967 5.52219,9.24178 6.60108,11.87788 1.07888,2.6362 2.64806,5.4795 3.48705,6.3185 0.839,0.839 1.80767,2.9009 2.15262,4.5819 0.54681,2.6649 2.52241,7.3172 5.08005,11.9628 3.14971,5.7211 5.03786,10.0111 6.66701,15.1479 2.62866,8.2884 5.74766,15.9855 7.18791,17.7384 0.66884,0.814 1.21607,1.9826 1.21607,2.5968 0,0.6141 0.98877,2.6903 2.19727,4.6137 1.20851,1.9233 2.43675,4.5516 2.72942,5.8407 1.11594,4.9149 1.52027,6.2538 3.53926,11.7188 1.14296,3.0937 2.44788,6.0257 2.89982,6.5156 0.45195,0.4898 0.82173,1.5975 0.82173,2.4615 0,1.5192 2.36852,7.3412 7.09884,17.4492 1.25189,2.6751 2.27616,5.3645 2.27616,5.9765 0,0.612 1.01686,3.4858 2.25968,6.3862 4.04237,9.4337 9.24801,23.0093 10.11072,26.3672 0.87301,3.3981 1.31644,4.599 3.9059,10.5787 0.84492,1.9511 1.53503,4.0605 1.53359,4.6875 -0.002,0.627 0.81177,2.8276 1.80711,4.8901 3.89398,8.0689 6.43757,15.2019 6.99607,19.6189 0.32121,2.5405 1.15321,5.2826 1.8489,6.0938 0.69567,0.8111 1.71558,3.7951 2.26646,6.631 0.55087,2.8359 1.52205,6.4219 2.15817,7.9688 0.63611,1.5468 1.31818,3.8671 1.5157,5.1562 0.3487,2.2756 1.70295,7.1672 5.9263,21.4056 1.12146,3.7808 2.21876,9.0542 2.43842,11.7187 0.21968,2.6645 0.83866,7.3757 1.37554,10.4695 0.53687,3.0937 1.1275,6.6796 1.31249,7.9687 0.185,1.2891 1.20976,5.0859 2.27725,8.4375 1.06748,3.3516 1.9441,7.3607 1.94804,8.9093 0.004,1.5484 0.85091,5.7659 1.88216,9.372 1.03125,3.606 1.875,8.1534 1.875,10.1052 0,1.9518 0.58373,4.9458 1.29719,6.6533 1.734,4.15 3.54313,19.6406 3.3776,28.9205 -0.0434,2.436 0.33622,5.205 0.84371,6.1532 1.1411,2.1321 2.26671,10.9426 2.38221,18.6459 0.0477,3.1849 0.399,6.1029 0.78055,6.4843 0.38156,0.3816 0.69374,1.8642 0.69374,3.2947 0,1.4305 0.45591,2.8827 1.01312,3.227 0.57755,0.357 0.82854,2.2241 0.58382,4.3427 -0.23612,2.0442 -0.0233,5.4787 0.47311,7.6324 0.92993,4.0352 1.20039,7.4727 1.50377,19.1132 0.13112,5.031 0.57355,7.069 1.72986,7.9687 0.85452,0.6649 4.06668,3.6523 7.13812,6.6386 3.484,3.3875 7.84108,6.453 11.58416,8.1501 5.05547,2.2923 6.08874,3.1655 6.56533,5.5484 0.67698,3.385 6.02294,3.9876 26.59621,2.998 6.44531,-0.3101 15.72656,-0.4625 20.625,-0.3387 z M 681.32304,531.05303 c 1.50155,-9.0554 7.01503,-9.03429 7.01503,0.0268 0,2.81512 -1.46408,3.03473 -2.17247,0.32587 -0.63518,-2.42892 -2.56828,-1.92064 -4.22265,1.11031 -1.15087,2.10851 -1.19491,2.0046 -0.61991,-1.46303 z M 622.26172,1439.514 c 0.61616,-0.782 0.89683,-13.5585 0.79118,-36.0161 -0.0994,-21.1341 0.18574,-35.02 0.726,-35.354 0.48936,-0.3024 0.8875,-5.8926 0.88477,-12.4228 -0.003,-6.53 0.42839,-15.6697 0.95803,-20.3103 0.52965,-4.6407 0.70214,-12.4454 0.38332,-17.3438 -0.31883,-4.8984 -0.52573,-21.668 -0.45977,-37.2656 0.0832,-19.6658 -0.18886,-28.3594 -0.88737,-28.3594 -1.39509,0 -1.25999,-2.4682 0.27122,-4.9549 0.94377,-1.5327 1.55416,-9.8881 2.33123,-31.9113 0.57898,-16.4091 1.29632,-30.229 1.59409,-30.7108 0.29776,-0.4818 0.66275,-11.5412 0.8111,-24.5765 0.15385,-13.5189 0.67599,-24.4904 1.21541,-25.5392 3.24889,-6.3163 -6.10529,-18.0188 -23.77644,-29.7453 -5.18558,-3.4411 -9.98696,-6.9296 -10.66972,-7.7524 -0.68277,-0.8226 -2.44036,-2.1157 -3.90577,-2.8735 -1.46541,-0.7578 -4.98927,-4.5216 -7.83081,-8.3639 -2.84152,-3.8423 -6.19902,-7.9435 -7.4611,-9.1137 -3.06356,-2.8407 -3.19343,-20.7447 -0.86199,-118.83348 0.21447,-9.02344 0.62545,-32.01562 0.91328,-51.09375 0.28784,-19.07812 0.84184,-38.69531 1.23112,-43.59375 0.38928,-4.89844 0.58126,-14.17969 0.42662,-20.625 -1.09318,-45.56394 -1.29764,-43.97345 5.67861,-44.17342 16.18482,-0.46394 27.40189,-17.20053 17.89777,-26.70465 -1.78581,-1.78581 -3.24693,-3.86568 -3.24693,-4.62193 0,-1.64054 -1.43089,-1.68 -57.1875,-1.57703 -38.65755,0.0713 -43.93151,0.43029 -51.24838,3.48747 -3.68025,1.53771 -3.67071,1.97277 0.2261,10.30831 2.26222,4.83906 8.04879,11.71875 9.85673,11.71875 0.56434,0 2.09872,0.84375 3.40973,1.875 1.31102,1.03125 2.8932,1.875 3.51595,1.875 2.95944,0 10.86606,11.39783 10.65593,15.36113 -0.11248,2.12169 0.0916,5.96699 0.45344,8.54512 0.36888,2.62802 0.0804,10.04215 -0.65656,16.875 -0.72298,6.70312 -1.04893,12.60937 -0.72432,13.125 0.57011,0.90561 1.41154,50.29507 1.14997,67.5 -0.0705,4.64062 -0.26218,21.9375 -0.42584,38.4375 -0.4271,43.05895 -1.23615,71.43003 -2.07568,72.78843 -0.40019,0.6475 -0.64908,9.1334 -0.5531,18.8575 0.10417,10.5543 -0.21006,18.3988 -0.77965,19.4631 -0.5248,0.9806 -1.07371,3.5931 -1.21981,5.8056 -0.22347,3.3841 -0.60734,4.0723 -2.41761,4.3337 -1.38901,0.2007 -3.16822,1.9457 -5.01832,4.9219 -1.57649,2.536 -3.20738,4.611 -3.62419,4.611 -0.41682,0 -1.81011,1.7955 -3.09619,3.9901 -1.28609,2.1945 -3.53663,4.6979 -5.00122,5.563 -1.46458,0.8652 -4.86654,4.0267 -7.55992,7.0256 -7.22129,8.0404 -9.88,10.6088 -10.98197,10.6088 -0.54263,0 -3.92392,2.7421 -7.51397,6.0935 -3.59005,3.3514 -7.05471,6.0936 -7.69925,6.0937 -1.75992,4e-4 -1.5393,10.3085 0.2761,12.9004 1.00215,1.4307 1.18055,2.5774 0.57943,3.7242 -0.99538,1.8989 -0.48964,22.1512 0.77713,31.1198 0.46808,3.3138 0.68998,6.2858 0.49313,6.6044 -0.19687,0.3185 9.3e-4,3.5133 0.4397,7.0997 1.15068,9.4066 2.24404,26.4262 2.02556,31.5307 -0.10322,2.4118 0.70594,9.3728 1.79815,15.4688 2.85566,15.9384 3.76134,23.1523 4.03978,32.1773 0.13522,4.3828 0.74076,8.8835 1.34566,10.0013 0.60615,1.1204 0.84068,3.3284 0.52251,4.9192 -0.38426,1.9213 0.07,4.3912 1.35854,7.3865 1.51338,3.5178 1.76269,5.2675 1.14245,8.0176 -0.47654,2.1129 -0.41436,4.8904 0.15566,6.9549 0.52199,1.8905 0.68364,5.5611 0.35925,8.1569 -0.76227,6.0999 -0.77466,5.0163 0.1924,16.8212 0.48125,5.8747 0.48916,12.0582 0.0186,14.5312 -0.51985,2.7321 -0.43391,6.621 0.23523,10.6438 0.57991,3.4862 0.78175,8.3378 0.44856,10.7812 -0.86824,6.3668 -1.96996,54.4366 -1.36954,59.755 0.27559,2.441 -0.8569,13.9785 -1.54916,15.7825 -1.05226,2.7422 146.05316,2.9364 148.21265,0.1957 z m -109.58771,-34.3767 c -0.32227,-1.6113 -0.58594,-4.0909 -0.58594,-5.5102 0,-1.4193 -0.57094,-3.0543 -1.26874,-3.6335 -1.62444,-1.3481 -2.54712,-11.1508 -3.01099,-31.9891 -0.20086,-9.0234 -0.38874,-17.25 -0.41749,-18.2812 -0.0288,-1.0313 0.0989,-9.8907 0.28371,-19.6875 0.21754,-11.532 -0.0187,-18.4737 -0.66997,-19.6875 -0.5533,-1.0313 -1.06389,-5.6719 -1.13465,-10.3125 -0.22606,-14.8252 -7.75763,-33.0961 -14.5802,-35.3703 -1.62994,-0.5433 -0.094,-5.1998 1.92668,-5.8411 2.61692,-0.8306 6.68415,1.0399 6.68415,3.0741 0,1.9655 2.32913,4.3297 5.15625,5.2339 3.47154,1.1102 7.73237,5.6786 10.5773,11.3409 6.80038,13.5347 8.64223,18.1378 8.65752,21.6365 0.008,2.0218 0.84535,6.84 1.85893,10.7072 2.04517,7.8032 2.32076,11.3667 0.98253,12.705 -1.06419,1.0642 -1.11552,2.6396 -0.77609,23.8158 0.19645,12.2559 -0.0519,16.9635 -0.98949,18.75 -1.25514,2.3918 -1.74515,15.1013 -0.65051,16.8725 0.31352,0.5073 -0.10917,3.3614 -0.93931,6.3426 -0.83013,2.9813 -1.69217,6.8969 -1.91564,8.7016 -1.36097,10.9908 -7.68415,18.6523 -9.18805,11.1328 z m 56.34184,-40.8984 c -0.88508,-1.6803 -0.65917,-29.2238 0.2595,-31.6401 0.71046,-1.8686 0.69837,-4.6804 -0.0419,-9.7506 -2.23161,-15.2842 -1.73486,-26.4299 1.46655,-32.9062 0.63723,-1.2891 1.53645,-3.6084 1.99828,-5.1541 0.4871,-1.6302 1.91704,-3.3266 3.40534,-4.04 2.46628,-1.1821 5.28629,-5.5632 6.75426,-10.4934 0.38381,-1.2891 1.64287,-3.6094 2.7979,-5.1562 1.15502,-1.5469 2.42017,-3.8672 2.81144,-5.1563 0.96737,-3.187 4.1997,-6.5625 6.2843,-6.5625 2.24093,0 2.16785,1.1715 -0.20717,3.3208 -1.05531,0.9551 -2.60138,3.2353 -3.43571,5.0672 -0.83432,1.832 -2.23582,4.1745 -3.11446,5.2058 -0.87862,1.0312 -1.89772,3.1382 -2.26466,4.6822 -0.36693,1.544 -1.16058,3.4004 -1.76365,4.1255 -1.53375,1.8438 -5.20421,28.2858 -4.20602,30.3003 0.43822,0.8843 0.55692,3.8374 0.26377,6.5625 -0.29315,2.7249 -0.47753,7.0638 -0.40974,9.642 0.0678,2.5781 0.1302,5.3203 0.13868,6.0937 0.0307,2.8007 -0.0861,24.8909 -0.1412,26.7188 -0.0311,1.0312 -0.0703,3.4859 -0.087,5.4547 -0.0292,3.4447 -0.13147,3.5576 -2.70658,2.992 -1.51974,-0.3338 -2.94117,-0.159 -3.28947,0.4047 -0.70171,1.1353 -3.95676,1.344 -4.51238,0.2892 z m -24.58403,-114.6094 c -0.31867,-0.5156 -1.77406,-0.9375 -3.2342,-0.9375 -5.7717,0 -17.9553,-7.4263 -20.37546,-12.4195 -0.93657,-1.9322 -2.36367,-3.7291 -3.17137,-3.9929 -1.07124,-0.3499 -1.52512,-1.9357 -1.67773,-5.8618 -0.64548,-16.6058 -0.13391,-21.1397 3.26771,-28.9612 0.70664,-1.6249 1.2848,-3.3698 1.2848,-3.8779 0,-1.9603 9.15556,-10.6668 10.90529,-10.3703 0.96624,0.1637 3.31052,-0.6626 5.20952,-1.8363 7.33745,-4.5348 29.82269,-3.9812 29.82269,0.7342 0,0.5284 0.67834,0.9607 1.50741,0.9607 3.47535,0 11.99852,10.4597 13.75069,16.875 0.9154,3.3516 2.07501,7.5703 2.57692,9.375 1.68305,6.0518 2.02083,9.6507 1.09143,11.6293 -1.88177,4.006 -3.73751,8.5947 -4.39626,10.8707 -0.37311,1.2891 -2.4402,4.0313 -4.59354,6.0938 -2.15334,2.0625 -5.06831,5.1645 -6.47772,6.8932 -1.92758,2.3644 -3.42856,3.2175 -6.05761,3.4429 -1.92229,0.1648 -5.60445,0.7291 -8.18257,1.254 -6.12327,1.2467 -10.52789,1.297 -11.25,0.1286 z m 10.49329,-7.6374 c 11.76177,-6.6319 13.36625,-8.7873 6.49567,-8.7261 -11.74376,0.1046 -14.03526,-3.0646 -7.4597,-10.3171 7.56348,-8.3421 7.42077,-8.1032 5.62447,-9.4167 -1.43007,-1.0457 -1.44429,-1.4506 -0.15902,-4.5267 0.77635,-1.8581 1.41154,-4.1839 1.41154,-5.1686 0,-3.3652 2.56302,-4.4556 6.05409,-2.5756 4.43027,2.3859 6.6885,7.4112 5.14946,11.4591 -1.05088,2.764 0.33338,5.3064 2.63528,4.8399 6.69204,-1.356 3.40682,-21.3683 -3.50783,-21.3683 -0.84849,0 -2.77007,-1.2811 -4.27018,-2.8469 -6.74659,-7.0418 -24.44373,-6.715 -30.90457,0.5708 -1.03125,1.163 -2.92969,2.4142 -4.21875,2.7804 -2.70019,0.7671 -5.625,3.5399 -5.625,5.3327 0,0.6753 -1.01735,2.7249 -2.26076,4.5547 -5.49585,8.0879 -0.008,26.8807 8.58889,29.4116 1.67578,0.4933 3.04687,1.3619 3.04687,1.9302 0,2.9772 2.56658,4.6524 5.07293,3.3111 2.14681,-1.149 2.59211,-1.1251 3.60986,0.1935 0.63853,0.8274 2.21565,1.6876 3.50471,1.9117 1.28906,0.224 2.63604,0.4648 2.99329,0.535 0.35724,0.07 2.25568,-0.7779 4.21875,-1.8847 z m -76.96199,-57.2264 c -3.46992,-8.5152 -1.20991,-15.8822 7.4349,-24.236 5.61615,-5.4271 11.69005,-15.0654 11.69005,-18.5503 0,-1.4332 4.77828,-6.9325 11.13791,-12.8186 0.5571,-0.5157 1.97038,-2.0744 3.14063,-3.4637 6.54211,-7.7674 27.56177,-11.3443 24.82999,-4.2254 -0.28275,0.7368 -3.51813,1.7068 -7.96257,2.3871 -9.06333,1.3874 -14.70509,3.9529 -16.55349,7.5273 -0.75848,1.4667 -2.62786,3.1841 -4.15419,3.8163 -1.61836,0.6704 -3.01199,2.0931 -3.34333,3.4133 -0.31249,1.2451 -0.94849,2.2638 -1.41332,2.2638 -0.46484,0 -1.11673,1.2365 -1.44865,2.7477 -0.33193,1.5113 -1.18208,3.2279 -1.88923,3.8148 -0.70715,0.5869 -1.57073,2.409 -1.91907,4.0492 -0.34835,1.6401 -1.28863,3.7247 -2.08952,4.6326 -1.14283,1.2954 -1.42242,3.7583 -1.29937,11.4461 l 0.15681,9.7956 -4.03505,4.9601 c -5.29993,6.515 -10.22337,7.4931 -12.2825,2.4401 z m 116.83623,-21.1134 c -2.40671,-0.4619 -5.37677,-4.3659 -4.45551,-5.8566 0.33269,-0.5383 -0.0528,-0.9787 -0.85669,-0.9787 -3.49273,0 0.85111,-4.8947 5.90843,-6.6577 4.91147,-1.7121 10.98584,4.9514 8.59163,9.4251 -0.85674,1.6009 -5.87649,5.013 -6.77446,4.6049 -0.15451,-0.07 -1.24055,-0.3118 -2.4134,-0.537 z m -17.94159,-29.8834 c -2.79073,-2.7076 -6.16573,-5.4667 -7.5,-6.1314 -1.33427,-0.6646 -3.05875,-1.7217 -3.83219,-2.3491 -2.09905,-1.7028 -12.03462,-5.239 -13.01585,-4.6326 -0.46893,0.2898 -2.81408,0.258 -5.21144,-0.07 -5.86365,-0.8036 -5.60886,-3.3363 0.42708,-4.2456 9.38239,-1.4133 11.66763,-1.0125 16.97772,2.9774 2.74493,2.0625 5.42401,3.7691 5.95351,3.7925 2.02704,0.09 10.89346,9.1794 11.70126,11.996 1.25705,4.3831 0.10691,4.1035 -5.50009,-1.3366 z M 564.05427,798.92639 c 0.76122,-3.55093 -2.27701,-8.21581 -6.70623,-10.29673 -2.1853,-1.02668 -3.64911,-2.41793 -3.82299,-3.63352 -0.79535,-5.56019 -25.17091,-2.4968 -26.70138,3.3557 -0.38159,1.4592 -1.26993,1.90268 -3.81125,1.90268 -1.82253,0 -3.57793,0.42755 -3.90089,0.95011 -0.81216,1.31408 -11.39895,-7.15575 -12.04838,-9.63914 -1.08754,-4.1588 0.171,-4.38897 20.8085,-3.80577 23.94115,0.67656 32.76349,0.76615 48.90392,0.49659 22.85838,-0.38175 22.35998,-0.46416 20.01585,3.30945 -2.77868,4.47311 -5.27189,6.81281 -7.28864,6.83984 -1.07028,0.0144 -3.61149,1.2862 -5.64713,2.82633 -2.03565,1.54013 -5.30519,3.23216 -7.26563,3.76006 -1.96045,0.52789 -3.56445,1.36541 -3.56445,1.86116 0,0.49575 -0.56743,0.90137 -1.26095,0.90137 -0.69352,0 -2.02453,0.84375 -2.9578,1.875 -2.64113,2.91842 -5.44013,2.50432 -4.75255,-0.70312 z M 461.98949,1437.5983 c 0.15128,-1.5469 0.5067,-4.9219 0.78983,-7.5 0.28312,-2.5782 0.10149,-5.9635 -0.40363,-7.5228 -0.56479,-1.7438 -0.64591,-7.9603 -0.21068,-16.1463 0.40503,-7.618 0.3459,-14.1218 -0.13826,-15.2068 -0.55746,-1.2493 -0.31012,-4.2155 0.72527,-8.6975 1.18965,-5.1498 1.53738,-10.7861 1.43181,-23.2079 -0.0767,-9.0234 -0.007,-16.8281 0.15571,-17.3438 0.16232,-0.5156 -0.10465,-3.0468 -0.59327,-5.625 -1.02939,-5.4313 -0.97999,-21.2392 0.0788,-25.2205 0.51577,-1.9393 0.23659,-3.6246 -0.97229,-5.8694 -1.44517,-2.6835 -1.51656,-3.4838 -0.48304,-5.415 0.7691,-1.4371 0.95039,-3.2339 0.49558,-4.9118 -0.39444,-1.4551 -0.76585,-7.9363 -0.82534,-14.4027 -0.0882,-9.5877 -0.41755,-12.2296 -1.78496,-14.3191 -1.4375,-2.1965 -1.55629,-3.4615 -0.83238,-8.8646 0.52734,-3.9359 0.50431,-7.278 -0.0613,-8.9005 -0.49815,-1.429 -0.63275,-3.6858 -0.29912,-5.0151 0.34416,-1.3713 0.13275,-2.9878 -0.48868,-3.7366 -0.73581,-0.8866 -0.9434,-4.0108 -0.63255,-9.5197 0.41932,-7.4307 -1.08167,-20.3203 -2.66454,-22.8815 -0.30674,-0.4963 -0.73152,-5.2007 -0.94396,-10.4541 -0.6515,-16.1118 -1.98694,-33.5955 -3.09262,-40.4894 -0.57891,-3.6093 -1.27286,-8.8628 -1.5421,-11.6743 -0.61248,-6.3955 -0.93634,-6.6999 -3.58921,-3.3729 -2.26666,2.8427 -2.45941,10.978 -0.96736,40.8285 0.24485,4.8984 0.61071,17.3437 0.81303,27.6562 0.20231,10.3125 0.66462,20.4375 1.02735,22.5 0.36272,2.0625 0.57306,5.1212 0.4674,6.7971 -0.14124,2.2404 0.91612,4.7224 3.99387,9.375 5.10083,7.7109 5.68684,11.3766 5.58271,34.9217 -0.0399,9.0234 0.29045,16.8486 0.73413,17.3891 1.08389,1.3206 1.12088,3.8717 0.42755,29.4859 -0.48706,17.9939 -0.35038,22.6326 0.74584,25.3125 1.60259,3.9178 1.47191,14.6937 -0.24559,20.2523 -0.79314,2.567 -0.89081,4.4378 -0.29367,5.625 0.49208,0.9784 0.72434,6.8414 0.51613,13.0289 -0.49094,14.5896 -0.48863,15.0207 0.11361,21.0938 1.18204,11.92 0.91281,20.4106 -0.69829,22.0218 -2.25533,2.2552 -1.90079,3.4574 0.91974,3.1186 1.9763,-0.2374 2.52435,-0.8583 2.74448,-3.1092 z m 180.60592,-6.0938 c 1.64418,-22.0669 1.47072,-30.6091 -0.81857,-40.3125 -0.48581,-2.0592 -1.24631,-55.8652 -1.24142,-87.8317 9.4e-4,-7.1239 -0.37687,-11.6595 -1.00392,-12.047 -1.53481,-0.9486 -1.58227,-0.7158 -2.2054,10.8162 -0.66914,12.3833 -1.41877,23.0833 -2.88989,41.25 -2.04374,25.2377 -2.79832,40.3456 -2.69239,53.9062 0.0684,8.7657 0.16329,20.5782 0.21071,26.25 0.0474,5.6719 0.0513,11.5782 0.008,13.125 -0.0427,1.5469 -0.0321,3.151 0.0236,3.5647 0.0557,0.4136 2.31605,0.6246 5.02308,0.4688 l 4.92188,-0.2835 0.66359,-8.9062 z m -0.48189,-181.5146 c 1.14266,-0.3064 2.18426,-1.4328 2.34375,-2.5346 0.15855,-1.0953 2.07873,-3.1841 4.28938,-4.6659 l 4.00234,-2.6829 0.0695,-28.7542 c 0.13329,-55.1968 -0.25132,-60.4506 -5.14263,-70.2481 -1.89915,-3.804 -4.31786,-5.6146 -6.06125,-4.537 -0.44155,0.2728 -0.8263,7.7884 -0.85501,16.7011 -0.0287,8.9127 -0.28442,17.2596 -0.56824,18.5487 -0.28382,1.2891 -0.76636,7.1953 -1.0723,13.125 -1.19569,23.1742 -2.29534,49.5164 -2.31879,55.5469 l -0.0247,6.3281 3.51562,0.072 3.51563,0.072 -3.75,1.1536 c -2.47469,0.7612 -3.27176,1.3491 -2.34375,1.7289 1.89382,0.7748 2.03841,0.7796 4.40045,0.1463 z m -15.05198,-137.7041 c 0.29681,-0.7735 1.3234,-1.4063 2.28135,-1.4063 2.13022,0 3.4144,-2.2431 4.0653,-7.1007 0.65502,-4.8885 1.49523,-9.0205 2.00046,-9.838 0.22563,-0.365 0.65666,-5.2461 0.95786,-10.8468 0.3012,-5.6008 0.921,-11.4489 1.37733,-12.9957 1.16352,-3.9441 3.00365,-19.1717 3.79519,-31.4063 0.0501,-0.7734 0.87462,-7.7344 1.83241,-15.4687 0.9578,-7.7344 1.98474,-16.8047 2.28209,-20.1563 0.29733,-3.35158 1.14646,-7.99218 1.88694,-10.31248 0.74048,-2.3203 1.99322,-10.75781 2.78386,-18.75 1.45026,-14.65997 2.78459,-23.97459 4.29756,-30 0.45315,-1.80469 1.10517,-7.71094 1.44892,-13.125 0.34376,-5.41406 0.99452,-10.5543 1.44614,-11.42274 0.45161,-0.86845 0.82112,-3.63676 0.82112,-6.15182 0,-3.99384 0.35611,-4.83611 2.8125,-6.6522 3.40442,-2.517 3.56746,-4.19079 0.54247,-5.56906 -2.47066,-1.12572 -2.46374,-2.72982 0.0361,-8.34966 0.73132,-1.64406 1.74745,-7.12844 2.25807,-12.1875 1.13119,-11.20745 3.4132,-27.15154 4.02943,-28.15293 0.24803,-0.40306 0.70057,-3.61673 1.00563,-7.14149 0.30507,-3.52476 0.77007,-6.75718 1.03334,-7.18315 0.58138,-0.94071 2.56146,-23.55128 2.45986,-28.08941 -0.0399,-1.78404 0.56783,-4.22115 1.35061,-5.41582 1.28815,-1.96597 1.26391,-2.44262 -0.25553,-5.02248 -1.59598,-2.70985 -1.59786,-2.89577 -0.0381,-3.77139 3.6507,-2.04941 1.86559,-3.64035 -4.08463,-3.64035 -4.89324,0 -5.64057,0.22079 -5.14232,1.51924 0.46981,1.2243 0.17078,1.39038 -1.54032,0.85552 -9.0591,-2.83173 -52.69374,-3.29003 -55.21854,-0.57997 -1.00186,1.07537 -2.39575,1.95521 -3.09754,1.95521 -0.70179,0 -2.75254,1.47656 -4.55723,3.28125 -1.87012,1.87012 -4.22872,3.28675 -5.48438,3.29405 -5.25645,0.0306 -6.25431,0.84373 -5.74006,4.67777 0.26461,1.97278 -0.0774,5.83773 -0.76011,8.58878 -0.68267,2.75105 -1.14046,5.36272 -1.01732,5.80371 0.12315,0.44099 -0.24204,1.36324 -0.81155,2.04945 -0.72225,0.87025 -0.74393,1.79235 -0.0717,3.04844 1.31995,2.46634 1.47822,9.21228 0.47745,20.3503 -0.46329,5.15625 -0.7529,15.70312 -0.64358,23.4375 0.10933,7.73437 0.16033,17.22656 0.11334,21.09375 -0.25591,21.06308 -0.11094,27.40932 0.78163,34.21875 0.76756,5.85572 0.70405,8.58909 -0.2897,12.46762 -1.63434,6.37875 -1.62309,6.51357 0.60221,7.21988 2.00088,0.63506 2.55095,3.69037 0.8533,4.73953 -0.59832,0.36975 -0.78871,1.87331 -0.45945,3.62841 0.30922,1.64831 0.0927,5.29143 -0.4812,8.09578 -0.5739,2.80434 -1.04681,6.36441 -1.05092,7.91128 -0.004,1.54688 -0.58124,6.60937 -1.2825,11.25 -0.70126,4.64062 -1.00779,10.12495 -0.68116,12.18745 0.65764,4.1529 0.65836,4.111 -0.38092,22.14398 -0.40475,7.0229 -0.45592,14.4057 -0.11374,16.4062 0.34219,2.0006 0.25018,6.6716 -0.20449,10.38 -0.55892,4.559 -0.49139,7.7045 0.20851,9.7123 0.59906,1.7184 0.8213,5.7971 0.52753,9.6813 -0.37369,4.9411 -0.16,7.1875 0.80996,8.5139 1.58712,2.1706 1.74074,6.7713 0.24276,7.2706 -1.40425,0.4681 5.78583,7.2793 7.69539,7.2898 0.80538,0 2.42213,1.3037 3.59277,2.8871 1.17065,1.5834 3.94571,3.6578 6.16678,4.6099 2.22107,0.9521 4.28773,2.1345 4.59256,2.6278 0.30483,0.4933 3.49499,2.6736 7.08925,4.8452 6.52556,3.9429 10.37557,8.4992 10.37557,12.2793 0,2.1495 1.69855,2.4346 2.47347,0.4152 z m -164.19222,-4.7132 c 3.09375,-2.2822 8.47266,-6.0492 11.95312,-8.3711 3.48047,-2.3219 6.32813,-4.6435 6.32813,-5.159 0,-0.5156 1.73434,-1.8222 3.85407,-2.9036 6.29198,-3.21 15.12863,-12.8001 17.70167,-19.2112 1.23159,-3.0687 3.10433,-6.7699 4.16165,-8.225 2.99329,-4.1193 3.26191,-256.80599 0.27521,-258.89795 -1.2519,-0.87687 -1.6965,-1.95976 -1.34946,-3.28686 0.6181,-2.3636 -8.16102,-6.92694 -12.83626,-6.67223 -1.54351,0.0841 -3.57526,-0.62536 -4.6875,-1.63678 -2.79126,-2.53828 -52.75441,-4.55023 -75.32251,-3.03314 -1.69023,0.11363 -1.44444,3.52358 0.30229,4.19387 0.8108,0.31113 2.25962,0.14532 3.21962,-0.36846 2.35506,-1.26038 8.74224,-1.1856 10.04546,0.11761 1.79817,1.79817 0.24314,3.63576 -3.07668,3.63576 -7.45122,0 -10.03916,3.88575 -7.54673,11.33126 0.76178,2.27562 1.67625,7.30155 2.03216,11.16874 0.35592,3.86719 1.22145,8.71875 1.92342,10.78125 0.70197,2.0625 1.28244,5.30457 1.28995,7.20459 0.007,1.90004 0.46491,4.64154 1.01647,6.09225 0.55156,1.45071 1.16065,6.64614 1.35352,11.54541 0.19288,4.89926 0.94323,11.22806 1.66744,14.064 0.72421,2.83594 1.38817,6.63281 1.47546,8.4375 0.0873,1.80469 0.54312,5.39063 1.01295,7.96875 0.46982,2.57813 1.34697,7.64063 1.9492,11.25 0.60223,3.60938 1.90118,10.15722 2.88656,14.55076 0.98539,4.39355 1.74268,9.03417 1.68288,10.3125 -0.0598,1.27837 0.37896,4.43362 0.97502,7.01174 0.59606,2.57813 1.04206,6.52088 0.9911,8.76159 -0.0509,2.24072 0.34376,6.24854 0.87716,8.90625 0.53339,2.65772 1.14208,6.30872 1.35265,8.11341 1.55136,13.29581 2.76121,21.29953 3.40111,22.5 0.98074,1.83994 2.05745,9.1458 2.32767,15.794 0.11847,2.9148 0.70731,7.62008 1.30852,10.45598 0.60121,2.8359 1.12429,8.1094 1.16242,11.7188 0.0382,3.6093 0.67077,10.1484 1.40589,14.5312 0.73511,4.3828 1.3752,10.9219 1.42243,14.5313 0.0472,3.6093 0.48641,8.6718 0.97596,11.25 0.48956,2.5781 1.02187,6.375 1.1829,8.4375 0.16104,2.0625 0.54663,5.8593 0.85689,8.4375 0.31025,2.5781 1.04683,10.5937 1.63683,17.8125 0.98157,12.0094 1.19567,14.5594 1.63337,19.4531 0.20611,2.3044 0.83166,2.0775 7.17799,-2.6038 z M 403.65669,796.45029 c -0.36368,-1.08736 -0.90055,-3.63018 -1.19305,-5.65071 -0.71795,-4.95944 -2.0967,-5.09551 -5.13348,-0.50662 l -2.54676,3.84842 3.44008,3.24441 c 3.7935,3.57773 6.77119,3.06502 5.43321,-0.9355 z m 291.6983,-5.90899 c 4.03085,-1.92218 3.81536,-3.4816 -0.52689,-3.81271 -3.77627,-0.28795 -5.06284,0.42281 -5.9581,3.29156 -0.82888,2.65605 1.59892,2.85115 6.48499,0.52115 z m -222.8763,-5.64798 c 10.45636,-0.51845 11.03545,-0.93418 8.20313,-5.8888 -6.6986,-11.71797 1.34461,-19.02358 24.44904,-22.20697 l 11.86284,-1.63449 1.61639,1.99616 c 1.5009,1.85353 2.49788,1.99617 13.95344,1.99617 l 12.33704,0 0,-66.32544 c 0,-36.47899 0.2843,-66.60973 0.63178,-66.95721 0.9878,-0.9878 1.0995,-5.29635 0.2842,-10.96236 -0.50331,-3.49784 -0.35017,-6.71575 0.47009,-9.87792 1.18216,-4.55736 0.78172,-13.90854 -0.92578,-21.61931 -0.44576,-2.01299 -0.18447,-3.64555 0.83167,-5.19638 1.19257,-1.8201 1.43479,-4.61104 1.24147,-14.30558 l -0.24015,-12.04433 -4.19352,-3.61613 c -4.74909,-4.09523 -8.67359,-4.76139 -10.28726,-1.74621 -1.03776,1.93907 -4.16331,2.54411 -5.12277,0.99167 -1.10196,-1.783 -8.55534,-2.1761 -11.5822,-0.61085 -3.80373,1.96699 -4.21213,1.9162 -7.61485,-0.947 -2.11918,-1.78318 -3.52506,-2.2846 -5.21576,-1.86026 -1.27301,0.31951 -5.5897,0.61381 -9.59262,0.65399 -4.76676,0.0479 -8.12643,0.57341 -9.73678,1.52311 -3.03412,1.78939 -6.40485,1.06821 -9.82586,-2.10228 -2.9552,-2.7388 -4.72683,-2.92725 -7.12404,-0.7578 -2.00445,1.81401 -10.81362,3.24405 -13.00198,2.11068 -0.94726,-0.49058 -3.24916,0.0871 -6.44846,1.61817 -3.81107,1.82392 -5.44078,2.16704 -6.96438,1.46632 -1.09398,-0.50314 -3.04374,-1.38613 -4.3328,-1.96222 -1.28906,-0.57608 -3.10674,-1.57783 -4.03928,-2.2261 -1.40251,-0.97498 -1.89163,-0.9154 -2.83016,0.34474 -1.65321,2.21974 -12.60226,3.41105 -13.35364,1.45296 -0.89479,-2.33176 -2.94098,-2.52382 -5.49392,-0.51567 -2.42363,1.90642 -4.29065,1.84596 -8.63385,-0.27956 -1.60279,-0.7844 -2.56383,-0.57066 -4.77088,1.06109 -5.56951,4.11772 -13.4629,4.80588 -16.57741,1.44526 -2.38619,-2.57474 -3.93409,-2.97468 -4.53562,-1.17188 -0.26786,0.80281 -2.72829,1.18006 -7.8125,1.19783 -4.08182,0.0143 -9.17511,0.5966 -11.31842,1.29407 -3.01633,0.98156 -4.58385,1.02866 -6.93677,0.20842 -7.74509,-2.69995 -8.70882,-0.72508 -4.24085,8.69028 1.84568,3.88943 3.3558,7.84306 3.3558,8.78586 0,0.94279 0.37091,2.11495 0.82425,2.6048 0.45334,0.48984 1.36109,2.57812 2.01723,4.64062 0.65614,2.0625 2.42785,6.18794 3.93715,9.16765 1.50929,2.97971 3.5394,8.19843 4.51135,11.59717 0.97196,3.39874 2.39933,7.14428 3.17194,8.32344 0.77261,1.17916 1.90933,4.187 2.52603,6.68409 0.61671,2.49708 2.10333,6.64953 3.3036,9.22765 6.29436,13.51994 8.87622,26.53612 5.02095,25.3125 -1.45648,-0.46227 -1.875,-0.16847 -1.875,1.31627 0,1.3507 0.85294,2.13239 2.90776,2.66484 2.98866,0.77444 4.98307,4.30137 6.22675,11.01145 0.28596,1.54278 1.36835,3.95263 2.40533,5.35521 1.24572,1.68493 2.12057,4.86825 2.57851,9.38245 0.69319,6.83333 1.66411,11.20608 3.52713,15.88547 0.54539,1.36989 1.29208,5.16676 1.65929,8.4375 0.36722,3.27074 1.79326,9.11087 3.16898,12.97806 1.37572,3.86719 2.59776,8.88244 2.71564,11.145 0.22985,4.41161 1.83663,11.22898 4.77537,20.26125 3.71408,11.41533 4.72274,15.7962 4.72274,20.51216 0,3.037 0.69558,6.12591 1.875,8.32645 1.03125,1.92409 1.875,4.96159 1.875,6.75001 0,4.51957 1.14423,4.8849 17.34375,5.53746 7.73437,0.31157 15.53906,0.95294 17.34375,1.42527 1.80469,0.47234 6.44531,0.6448 10.3125,0.38323 3.86719,-0.26156 11.35547,-0.68997 16.64062,-0.95203 z m 217.04385,-34.71836 c 43.47693,-132.12416 47.54364,-144.06702 49.75488,-146.11741 1.22798,-1.13864 2.71133,-3.97112 3.29633,-6.29438 0.58501,-2.32328 2.1213,-5.48109 3.41399,-7.01735 1.29268,-1.53627 2.35033,-3.26539 2.35033,-3.84248 0,-0.57709 0.40755,-1.78182 0.90566,-2.67717 0.49811,-0.89535 1.37171,-4.0534 1.94134,-7.0179 0.56962,-2.96449 1.63864,-5.99296 2.37559,-6.72991 0.73695,-0.73695 1.33991,-1.93747 1.33991,-2.66782 0,-0.73036 0.80068,-2.05252 1.77928,-2.93815 0.97861,-0.88562 1.97051,-2.95491 2.20423,-4.59842 0.23372,-1.64352 0.99644,-4.98964 1.69495,-7.43585 1.48907,-5.21489 0.0367,-8.36444 -2.36066,-5.11884 -1.40691,1.9048 -4.47305,1.57057 -9.71221,-1.05869 -2.98171,-1.49636 -3.16945,-1.48316 -4.44678,0.31268 -4.73613,6.65865 -6.81778,7.52702 -10.21959,4.26313 -1.04938,-1.00684 -2.84109,-2.67824 -3.98157,-3.71423 l -2.07361,-1.88361 -4.95764,2.16448 c -4.04481,1.76593 -6.166,2.09507 -11.52015,1.78751 -12.77027,-0.73353 -31.67884,-0.37594 -32.67268,0.6179 -1.89564,1.89564 -4.35857,1.12703 -4.35857,-1.36018 0,-2.5632 -0.87758,-2.96617 -2.6342,-1.20955 -0.88727,0.88727 -1.76444,0.7619 -4.02895,-0.57578 -2.86654,-1.6933 -2.94357,-1.68528 -7.90053,0.82271 -5.40871,2.73656 -8.18769,2.59015 -9.85168,-0.51904 -1.0328,-1.92981 -3.37953,-1.32613 -6.33538,1.62973 -1.67691,1.6769 -3.86639,1.59492 -4.54371,-0.17015 -0.40302,-1.05025 -1.34964,-1.27795 -3.57633,-0.86022 -2.14569,0.40253 -3.47775,0.11859 -4.57061,-0.97427 -1.39428,-1.39428 -1.73956,-1.40426 -3.59598,-0.10398 -1.33986,0.93849 -2.42661,1.12884 -3.12684,0.54769 -0.68629,-0.56956 -2.14891,-0.48469 -4.05663,0.23539 -2.53362,0.95633 -3.46772,0.86526 -6.19611,-0.60407 -2.30727,-1.24254 -4.08843,-1.54337 -6.31977,-1.06737 -4.13516,0.88213 -8.29199,0.92095 -10.68739,0.0998 -1.39878,-0.47949 -2.77157,0.0165 -4.82284,1.74253 -4.0294,3.39053 -6.87492,2.90742 -14.42933,-2.44981 -2.87722,-2.04039 -15.82372,3.55246 -15.82372,6.8358 0,1.00962 -0.64853,2.08454 -1.44118,2.38871 -3.21938,1.23539 -5.15657,10.89096 -5.70802,28.45062 -1.11661,35.5557 -1.27314,53.33621 -0.4739,53.83016 0.55805,0.3449 0.59054,1.72564 0.0847,3.59908 -0.78408,2.90381 -0.65586,109.2659 0.13759,114.13326 0.65314,4.00662 1.64085,4.6875 6.79992,4.6875 2.70238,0 5.38086,0.46744 5.95218,1.03876 0.65355,0.65355 2.72213,0.81591 5.57813,0.4378 11.1141,-1.47136 14.50426,-1.56764 22.84937,-0.64895 7.36955,0.81128 9.11636,1.31902 10.28374,2.98912 0.77344,1.10651 2.42919,3.03196 3.67945,4.27877 2.4324,2.42568 3.0078,4.77614 2.89511,11.82637 l -0.0712,4.45313 33.07644,-0.002 33.07643,-0.002 11.02822,-33.51419 z M 775.5662,552.83264 c 3.66213,-3.94738 6.20833,-8.80641 7.84523,-14.9714 0.72293,-2.72276 1.57397,-5.59539 1.89121,-6.38362 1.09227,-2.71392 -1.75238,-5.20418 -4.76402,-4.17051 -3.90917,1.34171 -6.91764,7.98814 -7.35513,16.24921 -0.1921,3.6273 -0.7984,7.4343 -1.34734,8.46001 -2.49386,4.65982 -0.28432,5.14337 3.73005,0.81631 z m -218.72455,-9.09442 c 3.30454,-5.29141 0.0901,-30.0462 -3.90152,-30.0462 -5.21689,0 -5.185,22.66256 0.0438,31.12292 0.81956,1.32609 2.68174,0.80635 3.85773,-1.07672 z m -225.69108,-5.70855 c 0,-2.95018 -3.21125,-10.22326 -5.04781,-11.43267 -2.52964,-1.66581 -3.32501,-0.68001 -3.05765,3.78967 0.43489,7.27007 8.10546,14.503 8.10546,7.643 z m 384.22602,-2.17198 c 0.97007,-3.61712 0.39518,-5.47556 -1.57637,-5.09589 -1.69437,0.32631 -3.48388,5.53089 -2.6494,7.70549 0.85601,2.23075 3.33885,0.69749 4.22577,-2.6096 z m -172.075,-1.32771 c 1.00976,-1.11576 1.2244,-2.11463 0.65306,-3.03908 -0.46808,-0.75738 -0.61194,-2.32977 -0.31969,-3.49421 0.75087,-2.9917 -1.21773,-2.66058 -2.84065,0.47779 -2.42817,4.69556 -0.49259,9.37032 2.50728,6.0555 z m -89.06688,-1.15046 c 0.66629,-2.54792 -0.27225,-5.78105 -1.55414,-5.35375 -0.96901,0.323 -1.10395,1.34866 -0.73521,5.58812 0.19393,2.22956 1.68493,2.07692 2.28935,-0.23437 z m 125.89605,-0.29454 c 2.16695,-1.86393 2.37042,-2.45323 1.44449,-4.18335 -1.73296,-3.23806 -5.18867,-1.41133 -5.5594,2.93876 -0.33805,3.96665 0.61515,4.25496 4.11491,1.24459 z m -200.70397,-1.55759 c 0.74401,-3.38746 -0.11658,-5.22805 -1.79368,-3.83619 -1.23369,1.02388 -0.8749,6.62582 0.42437,6.62582 0.41614,0 1.03233,-1.25533 1.36931,-2.78963 z m 38.32441,-2.65579 c 0.59703,-2.08178 0.50055,-3.37272 -0.32658,-4.36936 -1.53716,-1.85215 -2.46562,-1.18049 -3.15872,2.28501 -1.15578,5.7789 1.90136,7.60719 3.4853,2.08435 z"
     id="path4177"
     inkscape:connector-curvature="0" />
</svg>
